<svg xmlns="http://www.w3.org/2000/svg" xmlns:xlink="http://www.w3.org/1999/xlink" width="530" height="530" fill="none" xmlns:v="https://vecta.io/nano"><style><![CDATA[.B{fill:#0d435d}.C{fill:#e0e0e0}.D{fill:#fafafa}.E{fill:#455a64}.F{fill:#717bbc}.G{fill:#ebebeb}.H{fill:#a36957}.I{fill:#ffbe9d}.J{fill:#f5f5f5}.K{fill:#7c3b29}.L{fill:#eb996e}]]></style><path d="M512.849 128.896h-73.044v76.14h73.044v-76.14z" class="C"/><path d="M507.899 128.896h-73.045v76.14h73.045v-76.14z" class="D"/><path d="M507.92 205.057h-73.087v-76.182h73.087v76.182zm-73.045 0h73.003v-76.14h-73.003v76.14z" class="C"/><path d="M498.083 139.135h-53.402v55.672h53.402v-55.672z" fill="#fff"/><g class="C"><path d="M444.681 195.167a8.49 8.49 0 0 1-1.325 1.537l-3.392 3.434-3.488 3.339a8.71 8.71 0 0 1-1.547 1.294 8.25 8.25 0 0 1 1.314-1.527l3.403-3.455 3.498-3.339c.458-.488.974-.919 1.537-1.283zm53.402-.127c.557.384 1.068.828 1.527 1.325l3.445 3.392 3.339 3.487a7.71 7.71 0 0 1 1.282 1.548c-.552-.369-1.064-.795-1.526-1.272l-3.445-3.403-3.35-3.498c-.489-.47-.917-1.001-1.272-1.579zm-.148-55.756c.383-.544.828-1.042 1.325-1.484l3.392-3.445 3.498-3.339a8.46 8.46 0 0 1 1.537-1.282c-.376.556-.813 1.068-1.304 1.526l-3.403 3.445-3.498 3.35c-.468.466-.987.878-1.547 1.229zm-53.403.127a8.14 8.14 0 0 1-1.537-1.314l-3.434-3.392-3.339-3.487a9.12 9.12 0 0 1-1.293-1.548c.56.374 1.072.816 1.526 1.314l3.445 3.403 3.35 3.487c.484.463.914.978 1.282 1.537z"/><path d="M497.935 194.796a1.07 1.07 0 0 1 0-.265v-.784-3l-.053-11.342-.106-40.28.212.201h-53.254l.233-.233v55.661l-.202-.202 38.553.106h10.833 2.872-2.83l-10.78.053-38.69.096h-.212v-.202-55.66-.085h.244 53.254.202v.212l-.106 40.397v11.299 2.968.753c-.047.108-.103.211-.17.307zm-26.67-24.136l-7.42.095-1.378 3.329-3.805.053 6.954-15.55h3.667l7.42 15.359-3.901.053-1.537-3.339zm-1.208-2.703l-2.597-5.883-2.47 5.957 5.067-.074zm15.264.583l.074 5.448h-1.611v-1.198c-.361.459-.829.821-1.364 1.054s-1.118.33-1.699.282c-2.12 0-3.477-1.06-3.498-2.608s.943-2.65 3.731-2.692h2.692v-.286c0-1.378-.858-2.12-2.544-2.12a4.82 4.82 0 0 0-2.957 1.007l-.721-1.219a6.36 6.36 0 0 1 3.858-1.209c2.544-.074 4.007 1.103 4.039 3.541zm-1.664 2.713v-1.229h-2.629c-1.675 0-2.12.657-2.12 1.42s.795 1.452 2.12 1.442a2.73 2.73 0 0 0 2.629-1.601v-.032zm18.952 49.82h-59.964v62.509h59.964v-62.509z"/></g><path d="M498.55 221.073h-59.965v62.509h59.965v-62.509z" class="D"/><path d="M498.571 283.603h-60.007v-62.54h60.007v62.54zm-59.964 0h59.921v-62.519h-59.921v62.519z" class="C"/><path d="M490.494 229.469h-43.842v45.707h43.842v-45.707z" fill="#fff"/><g class="C"><path d="M446.652 275.484a7.03 7.03 0 0 1-1.06 1.25l-2.788 2.83-2.872 2.746c-.378.401-.801.757-1.262 1.06a7 7 0 0 1 1.06-1.251l2.799-2.83 2.872-2.745c.369-.408.789-.764 1.251-1.06zm43.842-.117c.456.304.876.659 1.25 1.06l2.831 2.788 2.745 2.862a6.91 6.91 0 0 1 1.06 1.272c-.452-.31-.871-.665-1.251-1.06l-2.83-2.788-2.745-2.873c-.405-.374-.762-.798-1.06-1.261zm-.127-45.771c.304-.459.66-.882 1.06-1.262l2.787-2.819 2.873-2.746a6.56 6.56 0 0 1 1.261-1.06 6.96 6.96 0 0 1-1.06 1.251l-2.798 2.83-2.873 2.746c-.368.407-.788.763-1.25 1.06zm-43.842.117a6.97 6.97 0 0 1-1.251-1.06l-2.83-2.778-2.745-2.872c-.401-.378-.757-.801-1.06-1.262a6.96 6.96 0 0 1 1.25 1.06l2.831 2.799 2.745 2.872c.406.365.763.782 1.06 1.241z"/><path d="M490.367 275.176v-.223-.636-2.47-9.317l-.096-33.061.17.169h-43.715l.191-.201v45.707l-.159-.17 31.652.085h8.893 2.353-2.321-8.862l-31.8.085h-.169v-.17-45.707-.191h.201 43.715.169v.17l-.085 33.178v9.275 2.427.626a1.15 1.15 0 0 1-.137.424zm-18.497-20.607c0 2.195-1.76 3.488-5.216 3.541l-6.815.085-.17-12.72 6.434-.085c3.297 0 5.014 1.261 5.035 3.233.018.584-.135 1.161-.44 1.66a3.01 3.01 0 0 1-1.277 1.149 3.18 3.18 0 0 1 1.776 1.138c.445.571.682 1.276.673 1.999zm-9.138-6.89v2.99h3.032c1.495 0 2.29-.541 2.279-1.537s-.827-1.474-2.311-1.453h-3zm6.074 6.625c0-1.06-.869-1.568-2.448-1.547l-3.562.053v3.18l3.551-.053c1.632-.064 2.47-.541 2.459-1.633zm13.091.096c.024.51-.058 1.02-.243 1.497a3.67 3.67 0 0 1-.827 1.27 3.66 3.66 0 0 1-1.271.827c-.476.185-.986.267-1.496.243a3.32 3.32 0 0 1-1.53-.277 3.33 3.33 0 0 1-1.237-.942v1.166h-1.335l-.138-10.356h1.388l.053 4.081a3.34 3.34 0 0 1 2.672-1.219 3.65 3.65 0 0 1 1.506.189c.484.168.927.435 1.3.785a3.67 3.67 0 0 1 .87 1.245c.199.471.297.979.288 1.491zm-1.41 0a2.59 2.59 0 0 0-.46-1.434 2.6 2.6 0 0 0-1.179-.938c-.478-.189-1-.232-1.502-.125s-.96.362-1.318.73a2.59 2.59 0 0 0-.691 1.338c-.093.505-.035 1.026.168 1.497s.54.872.97 1.152a2.59 2.59 0 0 0 1.447.419c.347.013.692-.047 1.014-.176a2.49 2.49 0 0 0 .855-.574 2.47 2.47 0 0 0 .548-.87c.12-.326.171-.673.148-1.019zm-61.713-150.191H109.562v220.84h309.212v-220.84z"/></g><path d="M409.213 113.028H116.907v203.53h292.306v-203.53z" class="J"/><g class="G"><path d="M435.766 325.049H99.492v8.787h336.275v-8.787zM109.667 104.41c2.926 2.597 5.714 5.3 8.374 8.205l-8.374-8.205z"/><path d="M118.042 112.614a43.15 43.15 0 0 1-4.24-4.006 43.23 43.23 0 0 1-4.092-4.24 24.45 24.45 0 0 1 4.484 3.805 24.36 24.36 0 0 1 3.848 4.441zm291.404 1.061l9.349-9.063-9.349 9.063z"/><path d="M418.785 104.612c-1.353 1.701-2.85 3.282-4.473 4.727a37.72 37.72 0 0 1-4.866 4.336c1.357-1.698 2.853-3.28 4.473-4.728 1.497-1.58 3.125-3.03 4.866-4.335zm-8.82 211.904c3.18 2.873 9.466 8.48 8.809 8.48l-8.809-8.48z"/><path d="M418.774 325.049c-1.4-1.467-2.876-2.861-4.42-4.176-1.582-1.327-3.05-2.784-4.389-4.357 1.713 1.158 3.307 2.483 4.76 3.954l3.116 3.074c.305.335.589.689.848 1.06.072.108.129.226.17.35.032.116-.106.127-.085.095z"/></g><path d="M262.149 321.731h-32.055v3.487h32.055v-3.487z" class="D"/><path d="M131.811 284.641v40.545h69.695l-69.695-40.545zm10.695 16.324l28.97 17.151h-28.97v-17.151z" class="G"/><path d="M138.5 288.532a7.03 7.03 0 0 1-1.219 2.501 7.42 7.42 0 0 1-1.696 2.205c.24-.907.658-1.757 1.229-2.501.806-1.294 1.558-2.29 1.686-2.205zm10.345 5.946a6.8 6.8 0 0 1-1.219 2.438c-.795 1.262-1.548 2.216-1.675 2.12.238-.881.649-1.706 1.209-2.427.805-1.251 1.558-2.215 1.685-2.131zm10.335 5.947a6.83 6.83 0 0 1-1.452 2.29c-.933 1.176-1.781 2.045-1.897 1.95.33-.853.827-1.631 1.462-2.29.923-1.166 1.771-2.045 1.887-1.95zm10.155 6.18c.127.096-.53 1.124-1.452 2.3s-1.781 2.036-1.898 1.94c.336-.85.832-1.628 1.463-2.289.922-1.156 1.77-2.036 1.887-1.951zm10.621 6.095a7.18 7.18 0 0 1-1.346 2.438c-.859 1.272-1.664 2.226-1.791 2.12a7.26 7.26 0 0 1 1.335-2.438c.869-1.261 1.675-2.215 1.802-2.12zm11.024 6.36c-.234.848-.642 1.639-1.198 2.321-.784 1.198-1.526 2.12-1.653 2.025.231-.85.639-1.641 1.198-2.322.784-1.176 1.526-2.024 1.653-2.024zm-49.248-28.62c.128.085-.095.668-.498 1.314s-.827 1.113-.964 1.06.095-.667.498-1.314.827-1.177.964-1.06zm3.382 1.855c.138.085-.085.678-.488 1.325s-.837 1.06-.964 1.06.095-.668.498-1.314.827-1.145.954-1.071zm7.526 4.431c.127.085-.096.678-.498 1.325s-.827 1.06-.954 1.06.084-.668.487-1.315.848-1.144.965-1.07zm3.402 1.897c.138.074-.084.668-.487 1.315s-.827 1.06-.965 1.06.096-.668.498-1.315.827-1.145.954-1.06zm6.816 4.219c.127.085-.085.668-.487 1.315s-.838 1.113-.965 1.06.095-.668.488-1.315.837-1.134.964-1.06zm3.233 1.897c.128.074-.084.668-.487 1.315s-.838 1.06-.965 1.06.096-.679.498-1.325.827-1.135.954-1.05zm6.986 4.028c.127.074-.096.668-.498 1.315s-.827 1.06-.965 1.06.095-.679.498-1.325.827-1.135.965-1.05zm3.741 2.205c.128.085-.084.668-.487 1.315s-.837 1.113-.965 1.06.096-.668.488-1.315.837-1.145.964-1.06zm6.742 3.943c.127.085-.095.679-.488 1.325s-.837 1.06-.964 1.06.085-.668.487-1.314.838-1.166.965-1.071zm3.89 2.237c.128.074-.084.668-.487 1.314s-.838 1.06-.965 1.06.096-.678.488-1.325.837-1.134.964-1.049z" class="C"/><path d="M468.435 404.199c5.449-2.809 11.872-3.18 17.914-2.173 3.254.541 6.646 1.505 8.862 3.954s2.629 6.741.085 8.84c-1.506 1.251-3.615 1.442-5.576 1.41-4.738-.053-9.996-.89-13.78 1.961-2.12 1.632-3.604 4.335-6.18 5.13a6.11 6.11 0 0 1-3.859-.364c-1.212-.538-2.217-1.455-2.861-2.614a10.46 10.46 0 0 1-.753-7.706c.307-1.785 1.021-3.475 2.087-4.938s2.456-2.662 4.061-3.5zm-12.497-24.104c3.339 4.759 9.815 3.18 12.815.275s4.24-7.112 5.438-11.13c2.639-9.179 5.3-18.804 3.339-28.153a15.72 15.72 0 0 0-3.593-7.653c-.952-1.072-2.169-1.875-3.529-2.327s-2.816-.538-4.22-.249c-3.265.858-5.3 4.06-6.763 7.102-4.32 8.989-6.587 18.827-6.635 28.8 0 4.643.53 9.54 3.18 13.335m-9.18 6.805c3.615-4.24 4.304-10.6 2.692-15.9s-5.3-9.953-9.444-13.695a50.88 50.88 0 0 0-16.907-9.975 18.09 18.09 0 0 0-7.6-1.293c-1.294.077-2.55.469-3.658 1.142a7.97 7.97 0 0 0-2.702 2.716c-1.781 3.403-.075 7.516 1.77 10.876 3.252 5.919 6.967 11.572 11.109 16.907 3.328 4.293 7.133 8.48 12.211 10.462s10.345 1.717 13.027-1.802" class="G"/><g class="C"><path d="M455.715 451.91c.172-.695.272-1.405.297-2.12l.583-5.904a85.81 85.81 0 0 1 1.325-8.661c.783-3.486 1.846-6.903 3.18-10.218 1.294-3.312 3.049-6.424 5.215-9.243 1.768-2.296 4.024-4.172 6.604-5.491 1.747-.87 3.622-1.453 5.554-1.728a10.39 10.39 0 0 0 2.12-.318 10.62 10.62 0 0 0-2.183 0c-2.007.155-3.97.665-5.798 1.505a19.65 19.65 0 0 0-6.965 5.534 36.93 36.93 0 0 0-5.406 9.434 62.32 62.32 0 0 0-3.127 10.398 74.12 74.12 0 0 0-1.155 8.766 121.84 121.84 0 0 0-.286 5.936c-.061.703-.047 1.41.042 2.11z"/><path d="M456.118 447.373c.062-.332.083-.67.064-1.007v-2.872l.127-10.547c.222-8.904.986-18.487 2.47-31.991 1.399-12.72 3.286-27.497 5.3-37.1a155.94 155.94 0 0 1 1.261-5.883c.403-1.728.71-3.18 1.06-4.42l.678-2.788c.096-.321.153-.652.17-.986a4.18 4.18 0 0 0-.35.943l-.827 2.746c-.339 1.113-.752 2.671-1.187 4.388s-.922 3.678-1.388 5.862c-2.471 11.369-4.332 22.861-5.576 34.429-1.484 13.536-2.12 25.864-2.205 34.789-.053 4.463 0 8.077.149 10.6l.18 2.873a5.66 5.66 0 0 0 .074.964z"/><path d="M456.182 423.597a18.55 18.55 0 0 0 0-3c-.168-2.72-.476-5.431-.923-8.119a106.17 106.17 0 0 0-2.639-11.798c-1.286-4.792-2.941-9.477-4.95-14.013a74.54 74.54 0 0 0-14.533-22.631 39.15 39.15 0 0 0-3.424-3.18c-.519-.446-.985-.88-1.462-1.23l-1.325-.922c-.796-.606-1.639-1.145-2.523-1.611-.138.19 3.583 2.385 8.278 7.42a78.79 78.79 0 0 1 14.173 22.556 109.41 109.41 0 0 1 4.971 13.876 120.58 120.58 0 0 1 2.82 11.723c.614 3.371.975 6.138 1.187 8.046.043.968.16 1.932.35 2.883zm-22.981 41.934l2.385 32.637h41.923l2.385-32.637h-46.693z"/><path d="M484.897 452.673h-55.746v12.868h55.746v-12.868z"/></g><path d="M429.151 496.928v3.561h2.619 52.205v-3.561h-54.824z" class="G"/><path d="M434.335 506.765l-2.565-6.276h50.212l-3 6.276h-44.647z" class="C"/><path d="M479.12 476.205c-.058.105-.126.204-.201.297l-.626.827-2.438 3.127-.106.138-.106-.138-6.01-8.3h.35l-5.904 8.363-.191.265-.202-.254-7.006-8.332h.403l-.393.488-6.264 7.855-.202.265-.201-.276-5.883-8.374h.339l-7.271 8.289-.138.149-.096-.17-2.279-3.827-.583-1.06a2.16 2.16 0 0 1-.18-.36s.096.095.244.318l.647.986 2.395 3.752h-.233l7.166-8.395.18-.212.169.223 5.958 8.331h-.403l6.254-7.865.381-.477.202-.254.201.243 6.996 8.353h-.392l5.957-8.331.18-.244.17.244 5.872 8.395h-.212l2.544-3.042.679-.785.233-.212zm1.357-10.865c0 .148-10.505.265-23.458.265s-23.479-.138-23.479-.265 10.505-.265 23.468-.265l23.469.265zm2.12 35.5c0 .148-11.416.265-25.504.265s-25.493-.117-25.493-.265 11.416-.255 25.493-.255l25.504.255zM138.468 52.046s9.434 43.46 15.603 43.227c7.971-.35 34.81-36.973 34.81-36.973l-50.413-6.254z" class="J"/><path d="M193.874 58.947s13.886 42.57 20.023 41.828c7.908-.965 30.878-39.464 30.878-39.464l-50.901-2.364z" class="G"/><path d="M249.747 61.289s18.285 41.287 24.305 40.068c7.781-1.569 26.67-41.669 26.67-41.669l-50.975 1.601z" class="J"/><path d="M303.043 59.731s21.063 40.28 26.999 38.764c7.653-1.961 23.797-42.941 23.797-42.941l-50.796 4.176z" class="G"/><path d="M356.955 54.357s25.79 38.16 31.514 36.114c7.42-2.639 18.55-44.806 18.55-44.806l-50.064 8.692z" class="J"/><path d="M409.912 44.944s29.066 36.337 34.599 33.92c7.144-3.106 14.585-45.866 14.585-45.866l-49.184 11.946zM84.588 41.255s5.427 44.022 11.66 44.181c7.971.191 38.054-34.482 38.054-34.482l-49.714-9.699z" class="G"/><path d="M506.924 18.454l-1.187.435-3.52 1.251-5.734 2.025-3.657 1.283-4.24 1.378-9.89 3.18-11.872 3.572-6.646 1.908-7.102 1.961-3.71 1.06-3.837.975-7.972 2.025c-25.673 6.292-51.661 11.218-77.857 14.755-14.84 1.94-30.464 3.615-46.724 4.834s-33.136 1.834-50.414 1.972h-12.9l-12.72-.265-3.18-.064-3.18-.138-6.233-.254-6.19-.254-6.127-.382-12.084-.806-11.83-.996c-3.901-.339-7.738-.806-11.554-1.187l-5.607-.541-5.597-.763c-14.84-1.76-28.811-4.145-41.849-6.455-12.985-2.502-25.037-5.024-35.913-7.738l-7.961-2.003c-2.597-.625-5.077-1.357-7.515-2.003l-13.685-3.848-11.798-3.53-9.847-3.18-4.176-1.389-3.636-1.293-5.66-2.078-3.498-1.251-1.187-.445s.413.127 1.208.403l3.477 1.219 5.713 1.993 3.636 1.272c1.304.456 2.714.88 4.187 1.367l9.858 3.18 11.819 3.54c4.24 1.272 8.83 2.491 13.685 3.816l7.515 1.982 7.961 1.95c10.876 2.682 22.928 5.183 35.913 7.674 13.038 2.3 26.998 4.664 41.827 6.36l5.586.71 5.671.604 11.554 1.177 11.819.986c3.975.35 8.014.53 12.074.795l6.116.382 6.19.254 6.233.265 3.127.127 3.18.064 12.72.265h12.858c17.278-.138 34.153-.837 50.403-1.961s31.874-2.883 46.704-4.802c26.18-3.499 52.158-8.375 77.825-14.607l7.971-2.003 3.837-.965 3.71-1.06 7.102-1.95 6.646-1.887 11.883-3.54 9.911-3.18 4.24-1.357 3.668-1.261 5.745-1.982 3.54-1.219 1.177-.36z" class="E"/><path d="M61.989 35.372l-3.89-1.166-4.357-1.293-7.473-2.279-11.406-3.731-2.65-.88-12.815-4.59-1.219-.456.753-1.569 1.24.403 12.868 4.494 2.597.848 11.416 3.689 7.314 2.205 4.494 1.325c3.286 1.06 6.784 1.95 10.494 2.947l3.18.859 2.618.71 4.855 1.272 7.971 1.95c9.847 2.427 21.2 4.865 35.86 7.664 12.264 2.12 26.627 4.611 41.743 6.36l11.246 1.304 4.049.424 7.473.753 11.819.986c2.566.223 5.141.382 7.738.53l4.325.276 12.275.625 12.487.456 12.72.254h12.847c16.547-.127 33.485-.795 50.329-1.961 15.062-1.124 30.74-2.735 46.64-4.802 26.14-3.518 52.078-8.401 77.708-14.628l17.618-4.558 5.904-1.622 5.681-1.611 11.904-3.551 17.734-5.756 9.286-3.18 1.24-.413.731 1.579-1.219.445-17.14 5.947-9.9 3.18-11.894 3.583c-1.844.572-3.773 1.06-5.766 1.654l-9.296 2.576-2.428.668-11.829 2.989a754.51 754.51 0 0 1-77.984 14.84c-15.9 2.12-31.684 3.71-46.799 4.844-16.897 1.177-33.92 1.844-50.52 1.982H249.65l-31.482-.975-6.148-.382-4.346-.276-7.77-.541-11.819-.986-7.568-.774-4.007-.424-11.299-1.314c-15.222-1.802-29.606-4.24-41.902-6.455-14.649-2.83-26.076-5.3-35.987-7.759l-7.97-1.961c-1.685-.403-3.339-.859-4.961-1.304l-2.565-.7-3.116-.848-6.72-1.876zm22.514 237.673H24.539v62.509h59.964v-62.509z" class="C"/><path d="M80.443 273.045H20.479v62.509h59.964v-62.509z" class="D"/><path d="M80.464 335.575H20.458v-62.54h60.007v62.54zm-59.964 0h59.922v-62.508H20.5v62.508z" class="C"/><path d="M72.377 281.451H28.535v45.707h43.842v-45.707z" fill="#fff"/><g class="C"><path d="M28.535 327.455a6.78 6.78 0 0 1-1.06 1.262l-2.788 2.83-2.862 2.735a7.65 7.65 0 0 1-1.261 1.06 6.19 6.19 0 0 1 1.06-1.251l2.798-2.83 2.862-2.756a7.59 7.59 0 0 1 1.251-1.05zm43.842-.106c.462.301.886.657 1.261 1.06l2.83 2.788 2.735 2.862a7.61 7.61 0 0 1 1.06 1.261 6.16 6.16 0 0 1-1.251-1.06l-2.83-2.798-2.756-2.862a8.37 8.37 0 0 1-1.049-1.251zm-.117-45.771c.305-.459.66-.882 1.06-1.261l2.788-2.83 2.862-2.735a7.34 7.34 0 0 1 1.272-1.06 7.08 7.08 0 0 1-1.06 1.251l-2.788 2.83-2.873 2.756a7.77 7.77 0 0 1-1.261 1.049zm-43.841.106a7.32 7.32 0 0 1-1.261-1.06l-2.82-2.788-2.745-2.862a6.34 6.34 0 0 1-1.06-1.272 8.19 8.19 0 0 1 1.251 1.06l2.83 2.788 2.745 2.873a6.95 6.95 0 0 1 1.06 1.261z"/><path d="M72.26 327.159v-.223-.636-2.47-9.317l-.085-33.062.17.17H28.631l.201-.191v45.707l-.17-.169 31.662.085h8.893 2.353-2.321-8.851l-31.8.084h-.159v-.159-45.707-.191h.201 43.714.17v.17l-.085 33.167v9.275 2.438.615c-.038.146-.099.286-.18.414zM58.48 304.39a7.05 7.05 0 0 1-1.188 3.916c-.775 1.159-1.875 2.062-3.163 2.596s-2.705.673-4.073.401a7.05 7.05 0 0 1-5.137-9.611 7.05 7.05 0 0 1 2.596-3.163c1.159-.774 2.522-1.188 3.916-1.188a7.04 7.04 0 0 1 4.988 2.061 7.05 7.05 0 0 1 1.528 2.288 7.04 7.04 0 0 1 .534 2.7z"/></g><path d="M42.644 199.852s0-.169.085-.498l.307-1.431 1.208-5.491 4.579-20.224 15.338-66.833.276-1.177.223 1.177.339 1.484 15.285 67.903 4.569 20.596 1.219 5.597.307 1.463a8.16 8.16 0 0 1 .085.508s-.064-.169-.148-.498l-.35-1.441-1.314-5.587-4.749-20.553-15.444-67.84-.339-1.484h.541l-15.497 66.78-4.749 20.14-1.314 5.48-.36 1.421-.095.508z" class="B"/><path d="M42.633 219.707v-16.78h44.764v16.78c0 2.566-.506 5.108-1.489 7.479a19.52 19.52 0 0 1-4.241 6.338 19.53 19.53 0 0 1-6.345 4.231c-2.373.979-4.915 1.481-7.482 1.477h-5.671c-5.179 0-10.147-2.057-13.81-5.718s-5.723-8.628-5.726-13.807z" class="E"/><g class="B"><path d="M42.633 202.927a4.73 4.73 0 0 1 .509.699l1.367 2.12 4.929 7.696 16.101 25.504.117.18h-.466l15.614-25.642 4.781-7.738 1.325-2.12c.146-.244.309-.477.488-.699a4.47 4.47 0 0 1-.392.763l-1.24 2.12-4.632 7.823-15.476 25.726-.233.382-.233-.382-.117-.18-15.964-25.567-4.781-7.791-1.283-2.12c-.155-.249-.293-.507-.413-.774zm26.829-97.701a4.89 4.89 0 0 1-.823 2.715c-.536.803-1.3 1.43-2.193 1.8a4.88 4.88 0 0 1-2.823.278 4.89 4.89 0 0 1-3.561-6.663c.37-.893.996-1.656 1.8-2.193s1.748-.823 2.715-.823a4.87 4.87 0 0 1 3.459 1.428 4.87 4.87 0 0 1 1.428 3.458z"/><path d="M64.575 22.027c.148 0 .276 18.836.276 42.061l-.276 42.061c-.148 0-.276-18.837-.276-42.061l.276-42.061zm2.534 219.028c0 .419-.124.829-.357 1.177s-.564.621-.951.781-.814.203-1.225.121a2.12 2.12 0 0 1-1.545-2.891 2.12 2.12 0 0 1 3.458-.687c.398.397.621.936.621 1.499z"/><path d="M64.088 241.839l.339-.17a4.62 4.62 0 0 0-1.461 1.488c-.367.601-.593 1.278-.659 1.979a12.29 12.29 0 0 0 .35 4.165c.095.435.329.976.774.954s.594-.498.657-.901c.138-.83.159-1.676.064-2.512-.051 1.076.296 2.132.975 2.968.127.159.318.329.519.276s.265-.276.318-.467c.188-.691.295-1.403.318-2.12a3.27 3.27 0 0 0 .668 1.749c.1.121.223.219.362.29s.291.113.447.123a1.14 1.14 0 0 0 .459-.065c.147-.053.282-.135.396-.242a1.6 1.6 0 0 0 .212-.591c.031-.209.02-.423-.032-.628-.353-2.507-1.362-4.876-2.926-6.868"/></g><path d="M45.453 202.927s-20.14-23.193-17.882-24.03S47.7 190.906 47.7 190.906s-15.37-34.354-12.296-36.866 19.271 30.4 19.271 30.4-2.523-48.039 0-48.601 11.724 48.05 11.724 48.05 13.695-44.414 17.596-44.414-4.187 42.739-4.187 42.739 16.207-27.337 18.773-23.701-11.512 33.241-11.512 33.241 20.395-17.044 21.2-14.84-22.069 25.981-22.069 25.981l-40.746.032z" class="F"/><path d="M42.644 168.01c.138-.063 3.71 7.579 7.971 17.077s7.6 17.246 7.42 17.31-3.71-7.59-7.971-17.088-7.558-17.235-7.42-17.299zm16.25 4.272c.148 0 .742 6.731 1.325 15.052s.922 15.084.774 15.094-.742-6.731-1.325-15.052-.922-15.084-.774-15.094zm22.408-21.518a1.92 1.92 0 0 1-.117.541l-.445 1.526-1.675 5.597-5.3 18.55c-1.972 7.271-3.551 13.896-4.675 18.698l-1.325 5.692-.382 1.548a2.2 2.2 0 0 1-.17.53 1.86 1.86 0 0 1 .064-.562l.276-1.558c.244-1.357.647-3.318 1.155-5.735 1.06-4.833 2.576-11.479 4.516-18.762s3.922-13.78 5.427-18.518l1.855-5.544.541-1.494a1.82 1.82 0 0 1 .254-.509zm9.688 24.761c.127.085-3.795 5.947-8.766 13.07L73.002 201.4c-.138 0 3.805-5.936 8.777-13.07s9.095-12.889 9.211-12.805zM52.237 202.46a7.8 7.8 0 0 1-1.76-1.25 48.56 48.56 0 0 1-3.837-3.573 47.41 47.41 0 0 1-3.434-3.911 7.41 7.41 0 0 1-1.208-1.791c.127-.096 2.215 2.427 5.046 5.3l5.194 5.225zm12.222-9.243c.412 1.562.651 3.166.71 4.78a20.59 20.59 0 0 1 .159 4.834 21.61 21.61 0 0 1-.71-4.781 20.6 20.6 0 0 1-.159-4.833z" class="B"/><path d="M87.397 213.378a10.5 10.5 0 0 1-1.728.361l-4.759.731c-5.245.733-10.523 1.2-15.815 1.399-5.309.202-10.626-.018-15.9-.657-2.014-.265-3.636-.53-4.749-.763a10.43 10.43 0 0 1-1.717-.413 10.94 10.94 0 0 1 1.749.201c1.124.17 2.756.371 4.77.583a115.68 115.68 0 0 0 15.805.498c6.18-.212 11.766-.784 15.794-1.24l4.77-.551a9.41 9.41 0 0 1 1.781-.149zm0 4.982a9.26 9.26 0 0 1-1.728.361l-4.759.731c-4.017.551-9.614 1.187-15.815 1.41-5.309.193-10.626-.03-15.9-.668-2.014-.265-3.636-.53-4.749-.763-.583-.089-1.158-.227-1.717-.414a13.01 13.01 0 0 1 1.749.202c1.124.169 2.756.381 4.77.583a115.68 115.68 0 0 0 15.805.498c6.18-.212 11.766-.784 15.794-1.24l4.77-.551a12.49 12.49 0 0 1 1.781-.149z" fill="#fff"/><path d="M397.299 99.46a36.41 36.41 0 0 0-32.054 19.124 36.42 36.42 0 0 0-4.331 18.868c.286 6.565 2.342 12.93 5.952 18.421l-5.3 13.345 13.78-4.24a36.43 36.43 0 0 0 32.724 5.726c5.518-1.709 10.55-4.706 14.681-8.743a36.41 36.41 0 0 0 9.078-14.477c1.836-5.477 2.342-11.312 1.477-17.023a36.43 36.43 0 0 0-6.45-15.824 36.41 36.41 0 0 0-12.957-11.14c-5.141-2.634-10.835-4.007-16.611-4.005l.011-.032z" class="D"/><path d="M406.404 142.623h-5.035c.009.576-.099 1.147-.318 1.68s-.545 1.015-.956 1.417a4.23 4.23 0 0 1-1.439.925 4.24 4.24 0 0 1-1.686.281 4.06 4.06 0 0 1-2.39-.67c-.708-.468-1.251-1.145-1.553-1.937-.268-.66-.375-1.375-.312-2.084a4.5 4.5 0 0 1 .672-1.997c.848-1.399 2.724-2.682 6.116-2.12v-11.332h-4.982v6.657a9.74 9.74 0 0 0-5.105 3.589c-1.263 1.724-1.923 3.815-1.88 5.951 0 7.367 6.604 9.084 9.434 9.084 2.162-.031 9.529-.561 9.434-9.444zm-11.946-18.179h5.056v-4.727h-5.056v4.727z" class="F"/><path d="M434.006 135.882a3.68 3.68 0 0 0 0-.647l-.053-1.866-.063-1.388-.233-1.654-.276-1.929c-.095-.689-.35-1.389-.53-2.12-.936-3.707-2.476-7.234-4.558-10.441a36.85 36.85 0 0 0-27.708-16.96 37.94 37.94 0 0 0-5.046-.095c-.859 0-1.728 0-2.586.159l-2.608.392a37.11 37.11 0 0 0-10.261 3.487 36.69 36.69 0 0 0-16.197 16.377c-1.889 3.689-3.113 7.683-3.614 11.798a23.68 23.68 0 0 0-.265 3.18 28.84 28.84 0 0 0-.064 3.18 39.36 39.36 0 0 0 .806 6.36c.957 4.534 2.754 8.848 5.3 12.72v-.382l-5.184 12.911-.307.763.795-.222 13.78-3.795-.339-.064a36.95 36.95 0 0 0 15.773 6.89c2.665.494 5.381.665 8.087.509 1.301-.032 2.597-.156 3.88-.371l1.887-.297c.615-.116 1.219-.296 1.823-.445 8.488-2.163 15.932-7.268 21.009-14.405a35.24 35.24 0 0 0 4.516-8.576l.699-1.929.456-1.834.424-1.685c.096-.53.159-1.06.233-1.537.117-.975.287-1.834.329-2.586s0-1.368.064-1.898 0-.858 0-1.155a2.14 2.14 0 0 0 0-.392c-.034.124-.052.252-.053.381 0 .297-.053.679-.096 1.156s-.074 1.155-.127 1.886-.244 1.601-.382 2.566c-1.215 7.004-4.435 13.505-9.271 18.717a36.77 36.77 0 0 1-17.971 10.645c-.593.137-1.187.318-1.802.434l-1.855.276c-1.258.21-2.53.323-3.805.339a33.04 33.04 0 0 1-7.929-.519 36.31 36.31 0 0 1-15.423-6.795l-.159-.117h-.18l-13.78 3.763.477.552 5.205-12.911.074-.202-.117-.18c-3.651-5.549-5.725-11.987-5.999-18.624a27.51 27.51 0 0 1 .063-3.106c.01-1.029.095-2.057.255-3.074.494-4.022 1.692-7.926 3.54-11.533 1.757-3.488 4.041-6.685 6.773-9.476a39.21 39.21 0 0 1 9.032-6.593c3.164-1.643 6.554-2.811 10.059-3.466l2.544-.403c.848-.117 1.696-.106 2.533-.17a40.57 40.57 0 0 1 4.961.074 36.54 36.54 0 0 1 15.592 5.098c4.743 2.859 8.774 6.76 11.788 11.407 2.087 3.152 3.651 6.62 4.632 10.271l.562 2.12c.17.657.223 1.314.318 1.908l.265 1.632c.074.499.074.965.106 1.378l.138 1.866c.003.217.024.433.063.647zm-183.072 204.94c-.626 2.12-3.435 94.34 13.663 167.172l85.086.191c1.134-49.756 20.14-127.126-7.367-169.918l-91.382 2.555zm85.892-176.034c2.809 10.218 7.059 18.401 11.204 22.514s8.575 8.925 8.427 14.755c-.064 2.29-.827 4.717.18 6.784 1.293 2.672 4.759 3.255 7.356 4.717a12.33 12.33 0 0 1 4.444 4.782 12.32 12.32 0 0 1 1.376 6.38c-.312 4.431-2.262 8.588-5.47 11.66-3.18 3.244-8.331 5.512-12.338 3.297-2.417-1.336-3.795-3.943-5.014-6.424-6.311-12.84-12.02-25.949-17.13-39.326m-18.857-72.886a26.32 26.32 0 0 0-13.484-7.996c-5.202-1.234-10.657-.855-15.638 1.088a26.32 26.32 0 0 0-12.246 9.787c-2.993 4.431-4.566 9.668-4.509 15.014.074 6.837 2.745 14.013 0 20.289-1.908 4.452-6.36 7.812-6.943 12.614-.71 5.565 4.06 10.6 3.805 16.228-.159 3.668-2.459 6.901-5.098 9.445s-5.714 4.632-8.141 7.42c-6.731 7.653-7.155 19.737-2.12 28.556s14.914 14.374 25.027 15.572 20.436-1.59 29.393-6.456c5.83-3.18 11.311-7.335 14.777-12.995s4.664-12.996 1.918-19.08" class="B"/><path d="M278.907 116.918a34.38 34.38 0 0 1 4.526.212c3.599.656 7.13 1.642 10.547 2.947 3.472 1.307 7.156 1.957 10.865 1.918a13.66 13.66 0 0 0 3.308-.572 5.13 5.13 0 0 0 1.144-.467c-1.461.375-2.956.602-4.462.679-3.656-.065-7.274-.757-10.696-2.046-3.444-1.316-7.019-2.261-10.663-2.82-1.118-.103-2.243-.103-3.36 0-.408-.007-.815.043-1.209.149z" class="E"/><path d="M364.534 243.185a29.78 29.78 0 0 0-.519-3.901c-1.118-5.245-3.496-10.14-6.93-14.26a33.03 33.03 0 0 0-12.776-9.389l-25.599-10.801-29.256.753s-21.74 9.932-26.118 15.105c-.329.381-3.244 3.264-3.435 4.388l-22.016 65.36-28.143 17.543 7.717 9.836 41.488-3.932 5.025-8.173c-2.746 6.159-13.695 31.143-13.695 38.796 0 0 64.034 13.706 89.527 11.141 11.215-1.134 13.876-2.184 13.876-2.184l-7.484-28.047c6.201-.424 12.54-4.24 15.084-9.54 4.42-9.19 4.049-60.357 3.254-72.695z" class="F"/><path d="M164.66 252.926h-4.409l6.042 57.039 52.152-3.583-5.883-49.11-47.902-4.346z" class="C"/><path d="M164.66 250.107l4.611 57.854 102.969-3.317-12.688-54.537-46.291 4.473-48.601-4.473z" class="D"/><path d="M164.66 250.16l.827.063 2.491.212 9.646.827 35.659 3.18 46.29-4.515h.222v.212l12.72 54.537.075.328h-.34l-4.854.149-98.103 3.095h-.212v-.212l-3.265-42.305-.859-11.554-.222-2.989v-1.06s0 .371.095 1.06.159 1.717.265 3.032l.986 11.596 3.477 42.146-.223-.191 98.103-3.18 4.865-.149-.265.329-12.656-54.537.265.191-46.29 4.409-35.5-3.37-9.677-.933-2.534-.255-.986-.116zm56.997 55.417a1.97 1.97 0 0 1-.17-.498l-.36-1.442-1.209-5.3c-.986-4.526-2.215-10.791-3.381-17.755s-2.025-13.292-2.565-17.882l-.583-5.449-.128-1.484c-.028-.172-.028-.347 0-.519a2.78 2.78 0 0 1 .117.509c0 .403.127.88.223 1.473l.763 5.417 2.724 17.85 3.18 17.766 1.06 5.363.265 1.474c.04.156.061.316.064.477z" class="B"/><path d="M194.626 269.823l.997 20.14-4.664.233-.816-16.43-4.039.201-.18-3.667 8.702-.477zm55.799 14.077l.382 3.784-15.19 1.526-.297-3.01 7.017-8.098c1.611-1.877 1.823-2.937 1.728-3.922-.159-1.569-1.346-2.385-3.466-2.173a4.98 4.98 0 0 0-2.282.724c-.691.423-1.268 1.007-1.683 1.703l-3.604-1.834a9.38 9.38 0 0 1 7.611-4.537c4.473-.455 7.696 1.548 8.056 5.194.202 1.951-.169 3.785-2.724 6.678l-4.176 4.834 8.628-.869z" class="F"/><path d="M207.399 319.378l-9.54-6.996.52-15.9c1.068.231 2.039.788 2.779 1.592a5.31 5.31 0 0 1 1.355 2.903l.721 7.271 2.999.901-.413-2.067 7.293-10.388s2.766 2.046 1.611 4.738c1.325-1.293 3.424-.222 3.18.976l.509-2.831s3.318-.985 3.18 2.375a21.56 21.56 0 0 1-.392 4.007h11.585s-3.349 5.66-5.3 7.197-19.535 6.307-19.535 6.307" class="I"/><path d="M208.279 316.325c-1.615-2.773-2.46-5.928-2.448-9.137.169 0 .477 2.12 1.155 4.59l1.293 4.547zm3.859-2.459c-.562-2.055-.948-4.154-1.156-6.275v-.095-.085l.18-.308a41.29 41.29 0 0 1 3.562-5.713 42.35 42.35 0 0 1-3.085 5.989l-.18.307v-.169a38.68 38.68 0 0 1 .679 6.349zm4.727-1.834c-.3-1.235-.453-2.502-.455-3.773v-.064l.413-1.876c.327-1.879.835-3.721 1.516-5.502-.15 1.903-.48 3.788-.986 5.629l-.435 1.855v-.064a17.14 17.14 0 0 1-.053 3.795z" class="L"/><path d="M323.978 129.786v5.205l1.06 77.846c.127 9.032-7.536 16.346-17.214 16.409-9.773.064-17.925-7.282-18.2-16.409l-.774-19.663s-12.402-1.706-15.402-17.733c-1.495-7.972-1.452-21.116-1.06-31.864a16.97 16.97 0 0 1 1.586-6.656 16.95 16.95 0 0 1 4.087-5.488c1.721-1.533 3.736-2.699 5.923-3.426a16.95 16.95 0 0 1 6.795-.807l33.199 2.586z" class="I"/><path d="M278.494 155.195c.021.535.243 1.042.623 1.419s.888.598 1.422.616a1.97 1.97 0 0 0 .788-.101c.253-.086.486-.224.684-.403a1.98 1.98 0 0 0 .47-.641 1.97 1.97 0 0 0 .178-.774 2.12 2.12 0 0 0-.623-1.419c-.379-.377-.887-.597-1.422-.616a1.96 1.96 0 0 0-.79.098c-.253.086-.487.223-.686.403a1.97 1.97 0 0 0-.469.642 1.96 1.96 0 0 0-.175.776zm-3-4.866c.265.255 1.802-.943 4.017-.996s3.88 1.06 4.113.731-.159-.604-.88-1.06c-.98-.642-2.136-.964-3.307-.922a5.45 5.45 0 0 0-3.18 1.134c-.657.499-.89.986-.763 1.113zm24.91 4.865c.021.535.244 1.042.623 1.42a2.12 2.12 0 0 0 1.423.616c.266.02.534-.014.787-.101s.486-.224.685-.403a1.98 1.98 0 0 0 .469-.641 1.99 1.99 0 0 0 .179-.774c-.021-.535-.244-1.042-.624-1.419a2.12 2.12 0 0 0-1.422-.616 1.97 1.97 0 0 0-.788.101c-.253.086-.486.224-.684.403s-.358.397-.47.641-.172.506-.178.773zm-3.053-5.055c.265.265 1.802-.944 4.018-.997s3.879 1.06 4.112.732-.148-.605-.879-1.06c-.982-.639-2.137-.958-3.308-.912a5.45 5.45 0 0 0-3.18 1.124c-.667.498-.89.996-.763 1.113zm-7.611 16.705c-1.18-.336-2.398-.521-3.625-.551-.572 0-1.113-.148-1.219-.53a2.89 2.89 0 0 1 .329-1.696l1.569-4.367c2.12-6.212 3.699-11.321 3.455-11.406s-2.205 4.887-4.367 11.098l-1.495 4.399c-.333.697-.415 1.487-.233 2.237a1.42 1.42 0 0 0 .391.508c.167.138.363.236.574.287a3.69 3.69 0 0 0 .964.117 15.43 15.43 0 0 0 3.657-.096z" class="B"/><path d="M288.934 193.174a40.98 40.98 0 0 0 21.402-6.36s-4.929 11.204-21.084 10.144l-.318-3.784zm1.898-21.009a4.01 4.01 0 0 1 1.566-1.248c.619-.276 1.299-.39 1.974-.331a3.6 3.6 0 0 1 1.416.376 3.62 3.62 0 0 1 1.15.906c.307.362.495.808.541 1.28a2.33 2.33 0 0 1-.287 1.36 2.69 2.69 0 0 1-2.894.816 8.41 8.41 0 0 1-2.894-1.611c-.25-.173-.469-.389-.646-.636-.083-.124-.127-.27-.127-.419s.044-.295.127-.419" class="L"/><path d="M296.323 168.201c-.361 0-.297 2.395-2.322 4.166s-4.589 1.579-4.6 1.908c0 .159.583.455 1.675.455 1.414-.021 2.776-.539 3.848-1.462 1.024-.887 1.662-2.138 1.78-3.488.096-1.017-.212-1.6-.381-1.579zm.212-26.755c.233.594 2.448.244 5.067.488s4.738.901 5.077.35c.138-.265-.244-.827-1.06-1.389a8.86 8.86 0 0 0-7.727-.636c-.986.413-1.453.901-1.357 1.187zm-20.405 2.428c.413.488 1.929-.074 3.763-.148s3.413.243 3.752-.297c.159-.255-.106-.763-.795-1.219-.926-.561-2.004-.82-3.084-.742a5.18 5.18 0 0 0-2.979 1.06c-.636.572-.827 1.102-.657 1.346zm27.602-19.186c-4.303 5.724.17 13.78 5.131 18.995s11.002 11.162 9.646 18.19c-1.569 8.151-12.72 13.366-11.056 21.496.604 2.968 2.947 5.502 2.957 8.48 0 5.47-7.059 8.12-9.095 13.197-2.787 6.954 4.887 13.886 5.004 21.38.063 4.24-2.354 8.226-2.481 12.477-.265 8.713 10.049 15.094 18.497 12.953s14.236-10.388 16.08-18.911-.954-20.5-2.321-29.107l14.639 3.392c2.734-2.597-.997-5.364-1.612-9.084-1.537-9.318-7.663-17.204-10.6-26.193-2.554-7.855-2.565-16.26-3.678-24.444s-3.657-16.705-9.9-22.101-17.056-6.063-22.112.467" class="B"/><path d="M313.219 273.936l-4.452-6.053 6.053-13.483 2.12-31.577s-4.389-1.156-4.834 3.805l-.498 5.523-4.982-1.601-7.091 2.12s.318 3.604 3.18 2.894a17.88 17.88 0 0 1 5.162-.53l2.713 3.986v1.431l-3.604-2.576h-7.123l-4.409 3.805s1.494 3.53 3.805 2.459c0 0-3.848 10.41-4.24 12.371 0 0-3.922 10.144 0 16.016 2.681 3.873 5.765 7.451 9.201 10.674l8.999-9.264z" class="I"/><g class="L"><path d="M315 243.09a2.84 2.84 0 0 0 .297-1.58c-.387-1.293-.906-2.543-1.548-3.731a31.72 31.72 0 0 1-2.12-5.438 31.71 31.71 0 0 1 2.661 5.205l.911 2.12a5.01 5.01 0 0 1 .52 1.855c.028.448-.087.894-.329 1.272-.212.233-.371.318-.392.297zm-1.855-.817a13.33 13.33 0 0 1-3.265-1.971c-1.717-1.219-3.021-2.353-2.894-2.502 1.123.583 2.188 1.272 3.18 2.057 1.103.66 2.106 1.473 2.979 2.416zm-3.191 5.958a5.46 5.46 0 0 1-1.494-1.686 11.91 11.91 0 0 1-1.166-2.12c-.19-.443-.356-.896-.498-1.357a.64.64 0 0 0-.106-.251c-.053-.075-.122-.137-.202-.183-.216-.074-.44-.121-.668-.138l-3.932-.541h.074a4.24 4.24 0 0 0-1.06.859l-.806.806c-.466.445-.826.614-.848.561s.255-.254.647-.742l.731-.879a3.83 3.83 0 0 1 1.188-1.06h.074c1.198.063 2.533.275 3.996.466a2.74 2.74 0 0 1 .837.191 1.21 1.21 0 0 1 .583.742l.446 1.346c.295.734.649 1.443 1.06 2.12l1.144 1.866z"/><path d="M303.329 249.1a11.5 11.5 0 0 1 .424-3.487 10.82 10.82 0 0 1 .976-3.382 11.33 11.33 0 0 1-.435 3.488c-.14 1.171-.465 2.312-.965 3.381z"/><path d="M308.693 255.057c.067-.359.018-.729-.138-1.06-.198-.347-.503-.622-.869-.784a2.27 2.27 0 0 0-1.526 0c-.625.225-1.214.539-1.749.933a7.22 7.22 0 0 1-2.12 1.06c-.471.135-.971.128-1.437-.021a2.47 2.47 0 0 1-1.182-.817c-.145-.227-.237-.484-.27-.752a1.8 1.8 0 0 1 .08-.795c.171-.481.434-.924.773-1.304a23.82 23.82 0 0 1 3.997-3.689c.664-.496 1.445-.814 2.268-.922.74-.063 1.482.108 2.12.488a6.51 6.51 0 0 1 2.12 2.12c.231.286.413.608.541.954a5.14 5.14 0 0 1-.711-.827 7.14 7.14 0 0 0-2.12-1.908c-.568-.304-1.213-.433-1.855-.371a4.47 4.47 0 0 0-2.024.88c-1.409 1.074-2.702 2.293-3.859 3.635-.604.679-.996 1.559-.561 2.195a2 2 0 0 0 .933.623c.365.115.754.123 1.123.023 1.495-.403 2.597-1.622 3.911-1.918a2.5 2.5 0 0 1 1.771.106c.409.21.735.554.922.975.201.805-.138 1.208-.138 1.176z"/></g><g class="B"><path d="M355.1 321.032a7.64 7.64 0 0 1-.965 1.06 11.82 11.82 0 0 1-3.381 2.173 15.9 15.9 0 0 1-6.244 1.282c-2.839-.003-5.646-.606-8.236-1.77a38.87 38.87 0 0 1-8.671-5.427c-2.872-2.311-5.861-4.844-8.935-7.6-3.238-2.875-6.244-6.001-8.989-9.349a90.07 90.07 0 0 1-7.781-11.544l-1.484-2.618-.095-.18.148-.149 16.261-16.769.137-.148.181.106 25.885 16.472 7.42 4.728 1.961 1.261.509.329.159.127s-.064 0-.191-.085l-.52-.297-2.003-1.197-7.483-4.601-25.992-16.303h.318l-16.207 16.727v-.328l1.473 2.618c2.291 4.024 4.889 7.865 7.77 11.49a81.08 81.08 0 0 0 8.915 9.307c6.158 5.427 11.66 10.6 17.415 13.049a19.88 19.88 0 0 0 8.078 1.823c2.109.019 4.202-.378 6.158-1.166 1.235-.501 2.381-1.199 3.392-2.067.689-.604.997-.975.997-.954z"/><path d="M337.652 253.827a6.33 6.33 0 0 1 0 1.135l-.085 3.074-.36 10.165-.456 10.155-.191 3.074a4.53 4.53 0 0 1-.148 1.123c-.075-.373-.097-.755-.064-1.134v-3.084c0-2.597.149-6.191.297-10.155l.52-10.155c.014-1.413.178-2.819.487-4.198zm13.42-27.898c0 .095-1.145.487-2.852 1.494-.997.587-1.941 1.261-2.819 2.014a20.07 20.07 0 0 0-5.078 6.71 19.01 19.01 0 0 0-1.176 3.254c-.509 1.919-.562 3.18-.668 3.18a2.31 2.31 0 0 1 0-.869c.033-.796.14-1.587.318-2.364a17.41 17.41 0 0 1 1.06-3.381c1.18-2.668 2.965-5.023 5.215-6.88.915-.757 1.906-1.418 2.958-1.971.7-.382 1.435-.697 2.194-.944.268-.124.554-.206.848-.243zm-82.733 59.063c-.299-.537-.554-1.097-.763-1.675l-1.834-4.675c-1.421-3.964-3.36-9.635-3.382-16.186 0-1.587.131-3.172.393-4.738.278-1.452.632-2.888 1.06-4.304.784-2.692 1.526-5.088 1.929-7.155a18.96 18.96 0 0 0 .392-4.95c-.064-1.166-.223-1.812-.159-1.823a2.42 2.42 0 0 1 .138.456c.112.445.19.899.233 1.357a17.67 17.67 0 0 1-.212 5.024c-.36 2.12-1.06 4.537-1.834 7.229-.36 1.346-.731 2.767-.986 4.24-.248 1.539-.372 3.095-.371 4.654 0 6.434 1.877 12.073 3.18 16.059.668 2.003 1.272 3.614 1.665 4.727a11.4 11.4 0 0 1 .551 1.76zm51.897 43.068a1.73 1.73 0 0 1-.477.212l-1.378.508-5.172 1.59-7.844 1.749c-2.979.541-6.276.933-9.763 1.177s-6.816.233-9.837.127-5.734-.381-8.003-.699l-5.3-.891-1.431-.318a2.16 2.16 0 0 1-.498-.148c.172-.028.347-.028.519 0l1.453.222 5.3.711 7.981.583c3.011.116 6.36.053 9.784-.17s6.742-.657 9.71-1.134l7.833-1.622 5.205-1.42 1.41-.403c.165-.049.336-.074.508-.074zm-55.639-23.755a6.65 6.65 0 0 1-.445 1.621l-1.58 4.293-5.363 14.098c-2.046 5.523-3.806 10.6-4.993 14.226l-1.388 4.356c-.139.545-.323 1.077-.552 1.59.07-.557.187-1.106.35-1.643.244-1.06.668-2.554 1.209-4.42 1.06-3.699 2.798-8.766 4.854-14.299s4.05-10.473 5.512-14.056l1.749-4.24c.414-.975.615-1.537.647-1.526z"/></g><path d="M338.765 507.793c-.013-.13-.013-.262 0-.392v-1.145l-.106-4.388-.095-16.155v-53.286c-.191-20.808-.848-39.644-2.12-53.223-.339-3.392-.573-6.466-.965-9.137l-.477-3.752-.201-1.643c-.064-.52-.18-1.06-.265-1.484l-.732-4.336-.169-1.123c-.017-.13-.017-.262 0-.392a1.85 1.85 0 0 1 .095.381l.233 1.06.827 4.314.286 1.484c.096.52.149 1.06.234 1.654l.519 3.742c.424 2.682.689 5.756 1.06 9.148 1.367 13.578 2.12 32.436 2.279 53.254l-.18 53.286-.074 16.155v4.388 1.145a1.62 1.62 0 0 1-.149.445z" class="E"/><path d="M326.904 128.26a6.63 6.63 0 0 1 3.805-6.805c1.291-.546 2.691-.783 4.09-.693a9.01 9.01 0 0 1 3.966 1.212c1.534.848 2.841 2.051 3.812 3.509a10.93 10.93 0 0 1 1.767 4.871c.19 1.741-.041 3.503-.674 5.137s-1.651 3.091-2.965 4.249a7.77 7.77 0 0 1-5.406 2.12 16.58 16.58 0 0 1-4.982-1.558c-1.643-.626-3.519-1.06-5.099-.276" class="B"/><path d="M334.133 141.849c-.731-2.713-1.711-5.353-2.926-7.886-1.39-2.441-3.008-4.745-4.833-6.88a8.02 8.02 0 0 1 1.855 1.675 23.84 23.84 0 0 1 5.575 10.6 8.2 8.2 0 0 1 .329 2.491z" class="F"/><path d="M331.515 135.256a6.78 6.78 0 0 1-1.166.784c-1.117.631-2.288 1.163-3.498 1.59a25.04 25.04 0 0 1-12.551 1.06c-2.314-.396-4.557-1.132-6.656-2.183a10.96 10.96 0 0 1-4.336-3.721c-.719-1.098-1.112-2.377-1.134-3.689a4.25 4.25 0 0 1 .106-1.06c.053-.233.095-.35.117-.35s-.075.509 0 1.389a7.11 7.11 0 0 0 1.25 3.487c1.739 2.693 5.989 4.728 10.749 5.576 4.125.694 8.356.389 12.338-.89a43.42 43.42 0 0 0 4.781-1.993zm1.113 5.724s-.149.265-.488.689c-.488.583-1.023 1.126-1.6 1.622-3.838 3.363-8.784 5.19-13.886 5.13-.761.003-1.52-.061-2.269-.191-.54-.095-.827-.159-.816-.201s1.187.063 3.085 0c2.469-.086 4.909-.562 7.229-1.41a23.13 23.13 0 0 0 6.36-3.636c1.537-1.219 2.311-2.109 2.385-2.003zm10.017-11.66c.13.684.056 1.392-.212 2.035a7.05 7.05 0 0 1-7.855 4.887c-.692-.056-1.356-.302-1.919-.71 0-.085.753.222 1.961.318a7.2 7.2 0 0 0 4.492-1.056c1.341-.835 2.37-2.088 2.928-3.566.477-1.092.52-1.908.605-1.908zm112.657 339.613H56.657l-1.039 12.699h77.295v26.553h7.473v-26.553h283.667v26.67h7.462v-26.67h23.787v-12.699z" class="E"/><path d="M372.452 371.371c0-.573-8.162-36.899-8.787-39.644l6.9-10.187s2.523-2.395 1.739-3.466-2.12-1.208-3.615-.233c-.943.625-5.893 3.243-5.893 3.243s-1.877-14.744-2.269-15.804-1.42-1.569-2.12-.795-.509 10.769-.509 10.769-3.975-12.317-4.823-12.804c-.204-.126-.434-.203-.673-.226a1.58 1.58 0 0 0-1.659 1.095c0 .487 2.725 13.695 2.725 13.695s-6.36-12.042-7.42-11.66a1.91 1.91 0 0 0-1.041.674 1.92 1.92 0 0 0-.412 1.17c-.095.87 4.24 13.579 4.24 13.579s-4.854-9.317-5.724-9.021c-.43.237-.774.606-.98 1.052s-.264.947-.164 1.429c.127.848 6.169 19.218 7.292 22.599l2.566 43.46 17.458 37.694 15.741-22.027-12.572-24.592zm22.504 11.066s-2.12 30.74 1.993 35.553 12.508 3.561 12.508 3.561l5.448-26.171-19.949-12.943z" class="I"/><path d="M385.649 396.09l7.971 11.236 18.02 9.455 40.98 21.487c2.107 1.105 3.764 2.909 4.686 5.102a10.25 10.25 0 0 1 .37 6.918l-1.42 4.738-15.37 38.012.784 15.264-81.8-.117 18.974-63.6c.583-3.805-2.947-8.861-2.947-8.861s-10.6-7.42-10.6-8.279 1.463-29.871 20.352-31.355z" class="F"/><path d="M383.72 459.605c-.106 0 0-1.463-.17-3.784a29.6 29.6 0 0 0-.636-4.049c-.383-1.631-.871-3.235-1.462-4.802a51.09 51.09 0 0 0-4.092-8.13l-1.993-3.18a4.01 4.01 0 0 1 .679.763c.424.509.985 1.282 1.643 2.268a41.37 41.37 0 0 1 4.24 8.173 33.8 33.8 0 0 1 1.452 4.886 26.64 26.64 0 0 1 .53 4.134v1.601a9.75 9.75 0 0 1-.064 1.208c0 .309-.043.615-.127.912zm46.576 29.192c-.507.245-1.036.444-1.579.594l-4.378 1.399c-3.699 1.156-8.84 2.661-14.554 4.24s-10.907 2.852-14.681 3.731l-4.483 1.007a8.79 8.79 0 0 1-1.665.287 11.51 11.51 0 0 1 1.612-.499l4.441-1.176 14.639-3.89 14.585-4.05 4.42-1.229c.536-.181 1.086-.319 1.643-.414z" class="B"/><path d="M457.03 451.041l-.668-.212a19.48 19.48 0 0 0-1.961-.605 23.48 23.48 0 0 0-7.791-.678 22.39 22.39 0 0 0-11.491 4.24c-2.096 1.52-3.923 3.379-5.406 5.502a19.97 19.97 0 0 0-3.402 7.875 10.95 10.95 0 0 0 .116 4.58 6.9 6.9 0 0 0 2.555 3.911 8.48 8.48 0 0 0 9.54 0c1.427-1.138 2.508-2.652 3.12-4.371s.733-3.576.346-5.36a12.16 12.16 0 0 0-7.155-8.554c-3.785-1.65-8.033-1.905-11.988-.721a25.32 25.32 0 0 0-5.873 2.385c-1.898 1.037-3.675 2.282-5.3 3.71a29.89 29.89 0 0 0-7.738 10.696c-.885 2.092-1.498 4.29-1.823 6.54a20.37 20.37 0 0 0-.201 3.402 6.05 6.05 0 0 0 .922 3.18 4.01 4.01 0 0 0 1.199 1.099c.47.281.993.462 1.536.534a8.04 8.04 0 0 0 3.328-.18c2.176-.564 4.083-1.878 5.385-3.71a9.38 9.38 0 0 0-1.134-11.968c-1.558-1.483-3.471-2.541-5.555-3.074-2.037-.568-4.154-.794-6.264-.668a27.44 27.44 0 0 0-11.713 3.467c-3.429 1.91-6.413 4.526-8.756 7.674-2.237 3.031-3.848 6.583-3.721 10.144a8.4 8.4 0 0 0 1.564 4.743 8.39 8.39 0 0 0 3.98 3.016 5.95 5.95 0 0 0 4.59-.509 8.32 8.32 0 0 0 3.18-3.18c1.31-2.582 1.656-5.548.975-8.363a23.17 23.17 0 0 0-2.703-7.208c-2.406-4.187-6.264-6.72-9.688-6.879-1.502-.112-3.011.09-4.431.593-1.041.373-1.999.945-2.82 1.686-.661.616-1.222 1.331-1.664 2.12 0 0 .096-.212.308-.626.35-.594.782-1.136 1.282-1.611a9.7 9.7 0 0 1 3.422-1.972c1.264-.416 2.599-.567 3.924-.445 3.498.128 7.473 2.693 9.932 6.933a23.71 23.71 0 0 1 2.788 7.303 12.55 12.55 0 0 1-.986 8.629c-.789 1.405-1.952 2.564-3.36 3.349-.741.416-1.559.679-2.403.774s-1.7.019-2.515-.223a8.82 8.82 0 0 1-5.873-8.14c-.148-3.721 1.516-7.357 3.784-10.452a28.33 28.33 0 0 1 9.166-7.974c3.596-1.963 7.576-3.123 11.663-3.4 2.171-.137 4.349.089 6.445.668a13.37 13.37 0 0 1 5.788 3.18c1.65 1.637 2.675 3.801 2.896 6.115a9.95 9.95 0 0 1-1.688 6.552 10.15 10.15 0 0 1-5.703 3.933c-1.16.312-2.374.377-3.561.19-.615-.083-1.206-.291-1.738-.609a4.56 4.56 0 0 1-1.357-1.246 6.58 6.58 0 0 1-1.06-3.455 21.34 21.34 0 0 1 .212-3.509 26.67 26.67 0 0 1 1.855-6.678 30.44 30.44 0 0 1 7.939-10.844c1.658-1.457 3.475-2.723 5.417-3.773 1.886-1.059 3.898-1.874 5.989-2.428 4.074-1.208 8.444-.938 12.338.764 1.86.788 3.505 2.011 4.796 3.566s2.19 3.396 2.624 5.369a10.22 10.22 0 0 1-3.689 10.187c-1.484 1.008-3.238 1.543-5.032 1.533a8.87 8.87 0 0 1-5.017-1.586 7.43 7.43 0 0 1-2.703-4.145c-.362-1.558-.398-3.175-.106-4.748a20.47 20.47 0 0 1 3.509-8.014c1.511-2.146 3.374-4.021 5.512-5.544a23.01 23.01 0 0 1 9.362-3.905c3.373-.588 6.834-.417 10.131.503a17.1 17.1 0 0 1 2.619.922zm-54.739-33.401a10.8 10.8 0 0 1-2.12 2.692c-2.218 2.214-5.051 3.71-8.13 4.293a14.59 14.59 0 0 1-6.424-.212c-2.409-.638-4.638-1.828-6.508-3.476-1.007-.888-1.895-1.904-2.639-3.021-.808-1.163-1.397-2.464-1.739-3.838-.205-.722-.266-1.478-.179-2.223a5.72 5.72 0 0 1 .688-2.123c.433-.654 1.022-1.191 1.714-1.561s1.466-.562 2.25-.559c1.533-.026 3.042.378 4.357 1.166a11.02 11.02 0 0 1 3.18 3.043c1.516 2.325 2.258 5.071 2.12 7.844a13.68 13.68 0 0 1-.71 3.763 12.83 12.83 0 0 1-1.675 3.18 13.48 13.48 0 0 1-4.993 4.038 15.5 15.5 0 0 1-9.105 1.315 11.59 11.59 0 0 1-3.254-.954c1.079.315 2.176.563 3.286.742a15.67 15.67 0 0 0 8.904-1.453 13.23 13.23 0 0 0 4.791-3.964c.671-.949 1.206-1.987 1.59-3.085.383-1.176.604-2.399.657-3.635.123-2.66-.597-5.29-2.056-7.516-.788-1.15-1.801-2.127-2.979-2.872a7.52 7.52 0 0 0-4.06-1.06 4.13 4.13 0 0 0-1.988.469c-.613.321-1.135.79-1.52 1.364-.331.596-.541 1.251-.618 1.927a5.15 5.15 0 0 0 .173 2.017 11.39 11.39 0 0 0 1.643 3.657c.715 1.086 1.571 2.073 2.544 2.936 1.805 1.607 3.956 2.779 6.285 3.424a14.43 14.43 0 0 0 6.233.265 15.75 15.75 0 0 0 8.056-4.071 24.79 24.79 0 0 0 2.226-2.512zm37.609 87.355c-.064.084-.922-.594-2.533-1.219-2.084-.848-4.364-1.09-6.579-.698a11.94 11.94 0 0 0-5.94 2.913c-1.293 1.145-1.866 2.12-1.95 2.014s.084-.265.349-.678c.382-.591.83-1.135 1.336-1.622a11.66 11.66 0 0 1 6.116-3.18c2.313-.396 4.69-.089 6.827.88.638.284 1.243.639 1.802 1.06.371.307.572.508.572.53z" class="D"/><g opacity=".3"><path d="M428.24 420.12c-7.961-3.498-16.897-3.89-25.302-7.77l-9.827-5.151c.954 1.505 3.647 2.756 4.293 5.035a21.73 21.73 0 0 1 .276 7.091 68.9 68.9 0 0 0 1.632 18.879c.88 3.847 2.555 8.13 6.297 9.423 2.491.859 5.236.117 7.77-.625l36.093-10.251c-3.371-8.024-13.282-13.144-21.232-16.631z" fill="#000"/></g><path d="M453.987 383.72c-1.229-5.926-3.01-11.978-6.996-16.536-4.632-5.3-11.787-7.961-18.836-8.406-6.042-.382-7.24-3.35-13.409-2.343-2.375.414-4.646 1.285-6.689 2.566-8.639 5.3-13.472 14.013-15.995 24.263-.943 3.837-.986 8.618 2.215 10.929 2.322 1.674 5.608 1.452 7.95 3.095 2.597 1.834 3.265 5.48 2.725 8.618s-2.025 6.02-2.905 9.073c-2.12 7.42-.583 15.307.975 22.854l45.029-1.304c1.739-.053 3.636-.17 4.897-1.367.967-1.122 1.553-2.521 1.675-3.997a124.44 124.44 0 0 0-.636-47.445z" class="B"/><path d="M395.433 384.653c-.017-.416.019-.833.106-1.24.053-.482.134-.96.244-1.431l.445-1.887c.441-1.625 1.008-3.213 1.696-4.749.85-1.875 1.861-3.673 3.021-5.374a37.35 37.35 0 0 1 3.964-4.749 32.12 32.12 0 0 1 3.838-3.265c.561-.434 1.123-.774 1.6-1.06.404-.269.821-.516 1.251-.742a5.18 5.18 0 0 1 1.124-.53c.053.085-1.506.933-3.742 2.671-1.312 1.016-2.551 2.121-3.71 3.308a40.63 40.63 0 0 0-3.869 4.695 39.64 39.64 0 0 0-3.021 5.3 37.03 37.03 0 0 0-1.781 4.643l-1.166 4.41zm5.363 6.37a12.9 12.9 0 0 1 .096-3.01 46.54 46.54 0 0 1 1.261-7.166c.607-2.35 1.393-4.65 2.353-6.879.355-.944.818-1.844 1.378-2.682-.285.964-.639 1.906-1.06 2.82a66.87 66.87 0 0 0-3.593 13.96 20.63 20.63 0 0 1-.435 2.957zm44.033 37.429a3.61 3.61 0 0 1-.202-.721c-.127-.477-.265-1.198-.434-2.12a52.36 52.36 0 0 1-.626-7.918c0-3.35.223-7.346.584-11.755.472-4.766.692-9.553.657-14.342a40.63 40.63 0 0 0-2.544-13.992c-1.42-3.632-3.616-6.909-6.434-9.604-1.909-1.808-4.152-3.227-6.604-4.176a20.42 20.42 0 0 0-2.046-.636c-.247-.05-.489-.124-.721-.223.25.02.498.059.742.117a13.26 13.26 0 0 1 2.12.54c2.522.884 4.835 2.276 6.795 4.092a26.7 26.7 0 0 1 6.646 9.699 40.54 40.54 0 0 1 2.618 14.172 127.45 127.45 0 0 1-.699 14.395c-.393 4.41-.679 8.374-.7 11.713-.032 2.636.12 5.271.456 7.886l.318 2.12a3.34 3.34 0 0 1 .074.753zm-4.208-.668c-.215-1.118-.336-2.253-.361-3.392l-.159-8.225.488-8.205c.059-1.14.226-2.272.498-3.381a26.46 26.46 0 0 1-.106 3.402l-.328 8.194v8.205c.076 1.133.065 2.271-.032 3.402z" class="E"/><path d="M237.758 398.168l1.293 17.448c-4.389.805-8.947 1.303-13.282.265s-8.48-3.869-10.017-8.056a4.42 4.42 0 0 1-.297-2.523c.092-.419.308-.8.62-1.093a2.12 2.12 0 0 1 1.129-.55" class="I"/><path d="M249.513 379.565c.689-2.12 3.594-3.435 3.615-5.671s-3.042-3.604-3.943-5.777c-1.357-3.276 2.66-6.752 1.727-10.144-1.06-4.071-8.098-4.505-9.402-8.48-.54-1.665 0-3.753-1.357-4.951-1.759-1.568-4.833 0-7.049-.943-2.045-.89-2.575-3.615-4.621-4.526s-4.569.615-6.625 1.791c-.615.361-1.389.816-2.184 1.23-3.487-1.145-9.042-.986-11.427.88-2.809 2.183-4.95 5.109-8.077 6.879-2.745 1.569-6.169 2.194-8.363 4.41-3.901 3.943-1.802 10.409-3.795 15.444-.678 1.717-1.834 3.243-2.565 4.939s-.954 3.774.169 5.3 3.477 2.375 3.52 4.24-2.322 3.117-2.12 4.898 3.105 2.395 4.346 3.964c1.621 2.035 0 5.215 1.399 7.42 1.537 2.343 5.236 1.844 8.088 2.523 4.971 1.176 8.66 6.593 13.705 5.777 1.93-.318 3.594-1.548 5.523-1.855 2.608-.414 5.141.901 7.759 1.219 4.728.583 9.148-2.057 13.07-4.59 2.014-1.293 4.176-2.798 4.696-5.024.477-2.014-.498-4.24.583-6.095s3.477-2.269 4.367-4.007c1.399-2.83-1.961-5.979-1.039-8.851z" class="B"/><path d="M199.089 358.704a1.51 1.51 0 0 1-.148-.403 4.58 4.58 0 0 1-.106-1.219c.101-1.529.77-2.966 1.876-4.028 1.646-1.547 3.731-2.547 5.968-2.862a5.3 5.3 0 0 1 3.879.869 4.24 4.24 0 0 1 1.293 1.76 3.17 3.17 0 0 1 0 2.258 2.38 2.38 0 0 1-1.727 1.495c-.406.09-.83.034-1.198-.16-.358-.204-.623-.538-.742-.932a2.62 2.62 0 0 1 .381-2.12c.392-.564.936-1.005 1.569-1.272 1.071-.442 2.262-.495 3.367-.15s2.056 1.065 2.686 2.036a6.49 6.49 0 0 1 .922 4.357 5.53 5.53 0 0 1-.254 1.187c-.096.265-.149.393-.17.393s.148-.573.212-1.601a6.54 6.54 0 0 0-1.06-4.113c-.544-.82-1.346-1.436-2.279-1.749-1.058-.376-2.219-.342-3.254.095-.527.231-.984.597-1.325 1.06-.164.243-.276.517-.329.806a2.12 2.12 0 0 0 .021.869 1.06 1.06 0 0 0 1.304.71c.302-.064.583-.204.816-.406a1.83 1.83 0 0 0 .52-.749 3.18 3.18 0 0 0-1.145-3.392 4.77 4.77 0 0 0-3.498-.784c-2.134.285-4.134 1.2-5.745 2.629-1.078.984-1.766 2.324-1.94 3.773a11.42 11.42 0 0 0 .106 1.643zm-5.109 20.49c-.223-.318-.375-.679-.445-1.06a6.95 6.95 0 0 1 .138-3.929c.423-1.269 1.203-2.39 2.247-3.226.792-.619 1.704-1.066 2.679-1.313a7.22 7.22 0 0 1 2.981-.118l-.318.318a7.79 7.79 0 0 1 0-2.332c.163-1.128.555-2.211 1.151-3.182s1.384-1.812 2.315-2.468a8.09 8.09 0 0 1 4.36-1.327c1.551-.015 3.073.416 4.385 1.242a6.56 6.56 0 0 1 .795.615l.233.254c-.39-.205-.768-.432-1.134-.678-1.046-.571-2.203-.911-3.392-.997a7.61 7.61 0 0 0-4.95 1.315 7.97 7.97 0 0 0-2.125 2.329 7.96 7.96 0 0 0-1.055 2.971 7.13 7.13 0 0 0 0 2.173l.053.381-.371-.074a6.84 6.84 0 0 0-2.784.088 6.82 6.82 0 0 0-2.516 1.195 6.5 6.5 0 0 0-2.406 3.71 7.12 7.12 0 0 0-.075 3.01l.234 1.103zm36.771-29.055c0 .085-.742-.137-1.908-.19a8.67 8.67 0 0 0-7.77 3.869c-.657.964-.911 1.674-.996 1.643a3.99 3.99 0 0 1 .668-1.855 8.16 8.16 0 0 1 3.451-3.258 8.17 8.17 0 0 1 4.679-.792c.665.03 1.312.23 1.876.583zm15.36 28.037l.487-1.06c.382-1.014.53-2.101.435-3.18-.108-1.585-.794-3.075-1.929-4.187a6.79 6.79 0 0 0-2.462-1.446c-.914-.301-1.881-.405-2.838-.303a6.66 6.66 0 0 0-2.555.827l-.562.339.17-.636c.184-.768.184-1.569 0-2.337a5.03 5.03 0 0 0-1.06-2.083 4.76 4.76 0 0 0-1.499-1.15 4.75 4.75 0 0 0-1.83-.472 5.36 5.36 0 0 0-2.501.456 9.34 9.34 0 0 1-.848.413 2.19 2.19 0 0 1 .763-.593c.795-.436 1.691-.652 2.597-.626a4.99 4.99 0 0 1 3.668 1.654c.581.654.997 1.439 1.211 2.288s.22 1.736.018 2.588l-.403-.308a7.05 7.05 0 0 1 2.778-.911 7.2 7.2 0 0 1 3.062.34c.985.333 1.886.875 2.64 1.589a6.99 6.99 0 0 1 1.336 7.802c-.127.273-.284.533-.466.773-.128.149-.191.234-.212.223z" class="E"/><path d="M189.305 476.449s-13.091 2.639-15.052 1.24-9.222-6.148-8.109-12.582 14.543-52.269 17.331-55.629 5.597-6.71 11.183-6.423 42.209 8.098 42.209 8.098 15.095-.837 18.169 1.399 10.07 6.434 10.07 14.257-1.548 61.48-1.548 61.48l4.071 19.706h-80.56l2.247-31.546" class="F"/><path d="M189.305 476.449c-.159 0-1.123-10.6-2.12-23.797l-1.6-23.85c.148-.011 1.123 10.6 2.12 23.807l1.6 23.84z" class="B"/><path d="M265 425.452c-.283-.005-.563-.04-.838-.106l-2.395-.424-8.788-1.579a838.33 838.33 0 0 0-29.086-4.622c-11.395-1.601-21.741-2.756-29.246-3.53l-8.882-.89-2.417-.244c-.283-.016-.563-.058-.838-.127.283-.024.566-.024.848 0l2.428.148c2.12.138 5.141.382 8.904.721 7.515.668 17.882 1.781 29.277 3.371s21.677 3.36 29.086 4.78l8.756 1.76 2.374.519c.277.058.549.132.817.223zm-1.442 19.536c-.264.03-.531.03-.795 0l-2.258-.053c-1.971 0-4.812-.18-8.331-.35-7.017-.36-16.716-.996-27.401-1.971a696.18 696.18 0 0 1-27.316-3.042l-8.247-1.156-2.237-.36c-.262-.027-.522-.081-.774-.159.267-.009.533.009.795.053l2.248.254 8.268.986 27.316 2.873 27.38 2.12 8.299.53 2.269.159c.263.023.525.062.784.116zm1.23 18.232c-.245.078-.497.128-.753.149l-2.183.328-8.035.954c-6.795.689-16.239 1.325-26.67 1.325s-19.875-.625-26.68-1.314c-3.403-.34-6.148-.668-8.035-.944l-2.183-.318a6.86 6.86 0 0 1-.753-.148c.257-.028.517-.028.774 0l2.183.222 8.056.774a317.89 317.89 0 0 0 26.638 1.145c10.42 0 19.833-.572 26.638-1.166l8.045-.784 2.184-.212a4.26 4.26 0 0 1 .774-.011zm-1.431 26.966a3.02 3.02 0 0 1-.764.074l-2.183.117-8.035.265-26.5.434c-10.324.064-19.758 0-26.5-.275l-8.035-.361-2.183-.159c-.257-.005-.513-.037-.764-.095a5.41 5.41 0 0 1 .764 0h2.194l8.035.201 26.5.096 26.5-.265 8.045-.096h2.184c.248.002.496.023.742.064zm-75.939-37.078c-2.872-.575-5.704-1.333-8.48-2.269a68.88 68.88 0 0 1-8.299-2.798c2.871.576 5.704 1.334 8.48 2.268a68.13 68.13 0 0 1 8.299 2.799z" class="D"/><use xlink:href="#B" class="H"/><path d="M66.631 406.945a16.13 16.13 0 0 0 3.888 5.136c1.628 1.434 3.529 2.524 5.588 3.206 2.076.645 4.286.724 6.402.231a12.22 12.22 0 0 0 5.639-3.04c1.791-1.834 2.851-4.24 4.07-6.498s2.724-4.526 5.024-5.681 5.576-.795 6.848 1.441c.424.7.689 1.59 1.42 1.961a1.96 1.96 0 0 0 2.481-1.198c.305-.987.331-2.04.074-3.042a57.88 57.88 0 0 1-1.24-11.448c.148-3.837 1.261-7.791 3.9-10.6 2.025-2.12 4.77-3.455 7.187-5.141s4.685-4.091 4.887-7.038c.18-2.629-1.357-5.12-3.307-6.901-4.24-3.879-20.978-6.869-26.32-4.696l-23.553 10.547c-1.102.785-9.201 3.636-9.01 13.526s6.021 29.235 6.021 29.235z" class="B"/><use xlink:href="#B" class="H"/><path d="M123.172 357.719c-.263-.267-.579-.476-.927-.614s-.722-.203-1.096-.19a2.72 2.72 0 0 0-1.08.265 2.73 2.73 0 0 0-.883.676 4.55 4.55 0 0 0 .864-3.374c-.171-1.194-.81-2.272-1.775-2.996a4.55 4.55 0 0 0-3.374-.864c-1.195.171-2.273.81-2.997 1.775.452-.982.544-2.093.261-3.136a4.63 4.63 0 0 0-1.808-2.577 7.33 7.33 0 0 0-3-1.121c-1.07-.149-2.159-.059-3.191.262a18.87 18.87 0 0 0-5.713 2.979c-.021-.717-.236-1.416-.622-2.021a3.96 3.96 0 0 0-1.572-1.413c-1.293-.63-2.734-.894-4.166-.764a16.7 16.7 0 0 0-7.866 2.456c-2.376 1.463-4.347 3.497-5.734 5.918a7.85 7.85 0 0 0-4.436-.419 7.84 7.84 0 0 0-3.949 2.064c-1.089 1.056-1.849 2.404-2.187 3.883s-.241 3.023.281 4.447c-1.486.307-2.818 1.121-3.769 2.303a6.54 6.54 0 0 0-1.446 4.174c-1.688 2.427-2.523 5.346-2.374 8.299.233 9.911 6.021 29.235 6.021 29.235.938 1.956 2.26 3.703 3.888 5.137s3.529 2.523 5.588 3.205c2.076.645 4.286.725 6.402.231a12.22 12.22 0 0 0 5.639-3.04c1.791-1.833 2.851-4.24 4.07-6.497s2.735-4.527 5.024-5.682 4.929-.36 7.42.36c2.237.647 2.237-.805 2.375-2.512l-.191-10.165c.148-3.837 1.261-7.791 3.901-10.6 2.024-2.12 4.77-3.456 7.187-5.141s4.685-4.092 4.886-7.039c.027-.428.006-.858-.063-1.282a6.76 6.76 0 0 0 1.144-1.961c.286-.708.369-1.482.24-2.235s-.466-1.454-.971-2.026z" class="B"/><path d="M93.121 374.445c-.022.367-.112.727-.265 1.06a6.58 6.58 0 0 1-2.389 2.982c-1.074.736-2.341 1.137-3.642 1.152-.985.009-1.961-.196-2.859-.601a6.82 6.82 0 0 1-2.346-1.741h.435a7.71 7.71 0 0 1-1.664 1.77c-.895.686-1.921 1.182-3.015 1.455a8.22 8.22 0 0 1-3.345.135c-1.802-.346-3.422-1.323-4.569-2.756a7.6 7.6 0 0 1-1.569-3.233c-.072-.321-.114-.647-.127-.975v-.339a17.2 17.2 0 0 0 .307 1.261 8.29 8.29 0 0 0 1.664 3.042 7.42 7.42 0 0 0 4.463 2.481 7.83 7.83 0 0 0 5.894-1.527 7.06 7.06 0 0 0 1.526-1.643l.201-.297.233.276a6.45 6.45 0 0 0 2.143 1.619c.82.384 1.711.59 2.617.607a6.11 6.11 0 0 0 4.039-1.442c.762-.624 1.38-1.405 1.813-2.289l.456-.997zm14.575-6.71a2.06 2.06 0 0 1 .31.878c.035.312-.002.629-.109.924a3.8 3.8 0 0 1-.975 1.771 4.63 4.63 0 0 1-2.12 1.187c-1.46.306-2.978.15-4.346-.445a4.4 4.4 0 0 1-1.569-.859c.581.101 1.15.264 1.695.488 1.313.448 2.721.543 4.081.275a4.3 4.3 0 0 0 1.94-1.06c.445-.411.777-.929.965-1.505.121-.542.164-1.099.127-1.654zm10.388-3.625a2.89 2.89 0 0 1-.286 1.781 5.79 5.79 0 0 1-2.986 3.169c-1.369.627-2.93.696-4.349.191-.598-.147-1.135-.477-1.537-.943 0-.085.614.307 1.643.572 1.334.342 2.743.23 4.006-.318 1.245-.595 2.254-1.592 2.862-2.83.477-.943.562-1.632.647-1.622zm-12.614-7.122c-.966-.638-2.046-1.084-3.18-1.315-1.343-.251-2.731-.053-3.95.564a6.21 6.21 0 0 0-2.792 2.849 6.26 6.26 0 0 0-.668 2.407l-.541-.032c-.011-.559-.219-1.097-.588-1.518a2.37 2.37 0 0 0-1.426-.782 3.72 3.72 0 0 0-2.65.561 24.86 24.86 0 0 0-2.035 1.665s.106-.244.403-.605a7.04 7.04 0 0 1 1.442-1.346 3.92 3.92 0 0 1 1.4-.661c.506-.125 1.032-.15 1.547-.07a3.39 3.39 0 0 1 1.675.858 2.43 2.43 0 0 1 .609.888c.134.337.19.7.165 1.063l-.541-.053a6.83 6.83 0 0 1 4.24-5.862c1.227-.484 2.57-.591 3.858-.307.862.178 1.675.54 2.385 1.06.456.349.668.614.647.636zm-9.953-7.686c0 .085-.498.106-1.24.35a5.06 5.06 0 0 0-2.427 1.686 4.99 4.99 0 0 0-1.06 2.787c.027.431.027.863 0 1.294-.053 0-.318-.446-.371-1.294a4.65 4.65 0 0 1 3.721-4.854c.869-.159 1.389-.032 1.378.031zm-20.628 12.381c-.053 0 .117-.795 1.06-1.537a4.34 4.34 0 0 1 1.961-.805 5.59 5.59 0 0 1 2.544.243 9.62 9.62 0 0 1 3.752 2.534c.806.837 1.23 1.399 1.177 1.452a8.19 8.19 0 0 1-1.442-1.166 11.02 11.02 0 0 0-3.657-2.29 5.38 5.38 0 0 0-2.3-.265 4.37 4.37 0 0 0-1.781.615c-.943.583-1.23 1.272-1.314 1.219zm10.727 8.512a4.42 4.42 0 0 1-.264-2.99c.263-.996.867-1.87 1.706-2.469a18.44 18.44 0 0 0-1.166 2.608c-.157.943-.249 1.895-.276 2.851z" class="E"/><path d="M145.082 411.121l-15.37 4.993 2.947 28.26-1.06 2.12-11.416 18.73c-.202.328 11.585 3.095 16.027 4.049 5.544 1.187 20.14 0 18.02-18.359-1.59-12.964-9.148-39.793-9.148-39.793zm-16.568-20.278a7.65 7.65 0 0 0-4.24 6.456c-.034.366.039.735.212 1.06.217.272.523.46.864.529a1.48 1.48 0 0 0 1.002-.148 4.24 4.24 0 0 0 1.495-1.42" class="H"/><path d="M127.878 397.341s0 .191-.233.477c-.269.429-.631.791-1.06 1.06-.319.193-.687.288-1.06.276a1.52 1.52 0 0 1-.657-.14 1.51 1.51 0 0 1-.53-.411 2.04 2.04 0 0 1-.318-1.357c.017-.468.081-.933.191-1.389a7.5 7.5 0 0 1 2.533-4.07 3.66 3.66 0 0 1 1.749-.944c0 .085-.636.414-1.495 1.23-1.105 1.065-1.888 2.421-2.257 3.911a7.82 7.82 0 0 0-.181 1.283c-.056.365.011.738.191 1.06a1.39 1.39 0 0 0 1.643.233c.399-.225.757-.515 1.06-.858.255-.202.403-.393.424-.361z" class="K"/><g class="H"><path d="M137.524 390.907s-7.568 3.021-8.48 5.459-2.629 11.533-2.629 11.533l3.361 8.798 15.052-3.01 2.469-18.465s5.3-15.021 5.237-16.399c0-1.855-1.474-2.469-3.297-.296s-5.872 10.451-5.872 10.451l-5.841 1.929z"/><path d="M136.115 387.303a8.65 8.65 0 0 0-4.505.594c-1.293.742-2.273 1.928-2.756 3.339-.467 1.401-.766 2.853-.891 4.324-.138 1.06-.18 2.428.71 3.096.222.157.48.257.75.29s.545-.001.798-.1c.251-.109.47-.28.637-.497s.276-.472.317-.743"/></g><path d="M131.175 397.606s.074.318-.223.785a1.6 1.6 0 0 1-.763.625c-.425.169-.899.169-1.325 0-.254-.115-.481-.283-.664-.493a1.93 1.93 0 0 1-.396-.726c-.162-.579-.212-1.183-.148-1.781a22.75 22.75 0 0 1 .615-3.89 7.64 7.64 0 0 1 1.939-3.498c.801-.776 1.831-1.275 2.937-1.42a8.74 8.74 0 0 1 2.12 0 2.12 2.12 0 0 1 .784.137c0 .117-1.145 0-2.894.276a4.87 4.87 0 0 0-2.639 1.389c-.857.927-1.462 2.058-1.76 3.286-.311 1.243-.53 2.508-.657 3.784-.07.534-.042 1.077.085 1.6a1.52 1.52 0 0 0 .284.584c.135.172.306.313.5.413.291.146.622.188.94.121a1.43 1.43 0 0 0 .809-.492c.172-.22.324-.454.456-.7z" class="K"/><path d="M143.1 388.766c-.879-1.068-2.045-1.862-3.36-2.289a4.77 4.77 0 0 0-4.092 1.325c-1.052 1.06-1.897 2.307-2.491 3.678l-1.516 3.402c-.278.609-.463 1.256-.551 1.919a2.49 2.49 0 0 0 .068.991 2.46 2.46 0 0 0 .452.885c.357.358.821.591 1.321.663a2.34 2.34 0 0 0 1.456-.26c.885-.504 1.544-1.327 1.844-2.3" class="H"/><path d="M136.252 396.78a2.41 2.41 0 0 1-.36 1.007c-.22.455-.545.851-.949 1.155s-.874.508-1.372.594c-.36.056-.727.031-1.076-.074a2.45 2.45 0 0 1-.938-.53c-.285-.309-.495-.679-.612-1.081s-.141-.828-.067-1.241a8.78 8.78 0 0 1 .806-2.438l1.06-2.491a11.46 11.46 0 0 1 3.031-4.335 4.73 4.73 0 0 1 1.997-1.021c.738-.176 1.508-.171 2.243.014.933.328 1.771.881 2.438 1.611.477.498.711.795.679.816a5.18 5.18 0 0 1-.827-.657c-.687-.633-1.505-1.107-2.396-1.389a4.34 4.34 0 0 0-3.763 1.06c-1.25 1.162-2.224 2.589-2.851 4.177l-1.06 2.448c-.373.73-.644 1.508-.806 2.311-.064.337-.053.684.033 1.016a2.32 2.32 0 0 0 .466.903 2.05 2.05 0 0 0 1.653.54c.45-.069.879-.238 1.257-.492s.694-.59.927-.981l.487-.922z" class="K"/><path d="M137.8 402.504l-.986-5.163a11.65 11.65 0 0 1-5.236-2.247c-.52-1.367.201-2.226 2.12-2.756s7.907.339 8.565.7c2.3 1.24 2.575 4.462 2.904 7.059" class="H"/><path d="M145.146 400.097a6.34 6.34 0 0 1-.265-1.219 16.32 16.32 0 0 0-.806-3.243 4.98 4.98 0 0 0-1.208-1.866 2.59 2.59 0 0 0-1.06-.604c-.414-.106-.859-.191-1.325-.265a29.25 29.25 0 0 0-6.063-.413 4.74 4.74 0 0 0-2.12.752c-.282.181-.486.461-.573.785-.053.328-.017.665.106.975l-.085-.117c1.496 1.152 3.25 1.923 5.11 2.247h.148v.138l.636 3.795a5.97 5.97 0 0 1 .148 1.41c-.168-.443-.293-.901-.371-1.368l-.816-3.763.17.17c-1.952-.286-3.8-1.059-5.374-2.247v-.074c-.165-.403-.213-.844-.138-1.272a1.89 1.89 0 0 1 .774-1.06 5.09 5.09 0 0 1 2.438-.87c2.074-.074 4.15.082 6.19.467.465.072.925.171 1.378.297.448.146.855.396 1.187.731a5.44 5.44 0 0 1 1.272 2.056c.351 1.09.568 2.219.647 3.361a4.89 4.89 0 0 1 0 1.197zm-8.904.583a8.8 8.8 0 0 1-1.41.17 7.12 7.12 0 0 0-3.084 1.192 7.13 7.13 0 0 0-2.216 2.454c-.424.753-.583 1.283-.668 1.262s0-.583.318-1.431c.472-1.107 1.249-2.057 2.24-2.74a6.36 6.36 0 0 1 3.357-1.119c.901-.01 1.484.212 1.463.212zm5.66 48.379c-1.633-.552-3.23-1.207-4.78-1.961-1.622-.583-3.205-1.27-4.739-2.056a17.85 17.85 0 0 1 4.951 1.547c1.638.59 3.178 1.423 4.568 2.47z" class="K"/><path d="M90.1 419.114c.975-.328 16.207 2.417 20.638 4.389 2.502 1.113 23.712 18.316 23.712 18.316l-15.582 25.557-10.218-3.721-.117 44.701-63.6-.17 1.378-71.391s4.569-18.709 12.338-20.977 31.45 3.296 31.45 3.296z" class="F"/><path d="M107.251 464.281c-.176-.001-.351-.026-.52-.074a13.08 13.08 0 0 1-1.473-.35c-1.786-.54-3.482-1.34-5.035-2.375-2.321-1.512-4.321-3.468-5.883-5.755a19.24 19.24 0 0 1-1.6-19.398 21.13 21.13 0 0 1 4.834-6.678 18.23 18.23 0 0 1 4.579-3.18 11.26 11.26 0 0 1 1.389-.594c.159-.073.326-.127.498-.159-2.273 1.086-4.364 2.516-6.201 4.24a21.04 21.04 0 0 0-4.558 6.583 19 19 0 0 0-1.75 9.663c.273 3.319 1.414 6.508 3.308 9.247 1.504 2.261 3.425 4.214 5.661 5.756a24.23 24.23 0 0 0 6.752 3.074zM96.46 505.164c-.148 0 .233-8.925.848-19.917l1.367-19.907c.095 0-.223 8.925-.848 19.928l-1.367 19.896zm-16.154-26.478a5.89 5.89 0 0 1-.901.933l-2.597 2.364c-2.237 1.961-5.406 4.568-9.031 7.282a158.52 158.52 0 0 1-9.54 6.593c-1.251.795-2.279 1.41-3 1.823a5.82 5.82 0 0 1-1.145.594 5.83 5.83 0 0 1 1.06-.774l2.904-1.972a248.43 248.43 0 0 0 9.434-6.699c3.615-2.703 6.816-5.3 9.116-7.144l2.714-2.226a7.23 7.23 0 0 1 .986-.774z" class="B"/><path d="M55.205 435.66c-.138-.095 1.113-1.918 2.364-4.324l2.215-4.399a13.53 13.53 0 0 1-1.728 4.653 13.83 13.83 0 0 1-2.851 4.07zm4.378 23.787c-1.246-1.137-2.298-2.469-3.116-3.943a15.04 15.04 0 0 1-2.173-4.537 47.93 47.93 0 0 1 2.639 4.24 41.12 41.12 0 0 1 2.65 4.24zm16.981-21.401c-1.027 1.555-2.202 3.006-3.509 4.335a29.31 29.31 0 0 1-3.911 3.965 27.63 27.63 0 0 1 3.498-4.336 28.29 28.29 0 0 1 3.922-3.964zm5.226 27.941c-.148-.064 1.06-2.671 2.247-5.968l2.184-6.01a34.82 34.82 0 0 1-4.431 11.978zm-10.94 12.465c-.356-1.496-.523-3.03-.498-4.568a18.99 18.99 0 0 1 .064-4.601 19.66 19.66 0 0 1 .488 4.569 20.02 20.02 0 0 1-.053 4.6zm-10.271 13.802a29.93 29.93 0 0 1-3.699-4.304 30.26 30.26 0 0 1-3.265-4.653 28.3 28.3 0 0 1 3.699 4.304 28.22 28.22 0 0 1 3.265 4.653zm13.865 8.894a23.83 23.83 0 0 1-.657-7.208c.585 2.355.806 4.785.657 7.208zm15.518-6.594a22.28 22.28 0 0 1-2.968-3.869 21.86 21.86 0 0 1-2.502-4.24 22.28 22.28 0 0 1 2.968 3.869 21.86 21.86 0 0 1 2.502 4.24zm5.438-21.126a5.12 5.12 0 0 1-2.332-.053 5.09 5.09 0 0 1-2.247-.604c.771-.161 1.569-.143 2.332.053a5.09 5.09 0 0 1 2.247.604zm10.844 11.808c-1.069-1.265-1.99-2.649-2.746-4.123a22.73 22.73 0 0 1-2.279-4.388c1.074 1.258 1.995 2.639 2.746 4.112.919 1.379 1.683 2.854 2.279 4.399zm-.244 9.996a14.49 14.49 0 0 1-1.272 3.71 13.71 13.71 0 0 1-1.781 3.498 14.34 14.34 0 0 1 1.272-3.71c.425-1.244 1.025-2.422 1.781-3.498zm-6.71-45.59a10.82 10.82 0 0 1-1.41-4.24 10.97 10.97 0 0 1-.127-4.484c.17 0 .244 1.993.668 4.389l.869 4.335zm6.095-15.741a9.69 9.69 0 0 1 2.83-1.558 9.54 9.54 0 0 1 3.064-1.06 9.65 9.65 0 0 1-2.841 1.558c-.952.52-1.983.879-3.053 1.06zm7.685 13.981c-.858-1.055-1.571-2.221-2.12-3.466-.711-1.156-1.26-2.405-1.632-3.71a14.84 14.84 0 0 1 2.12 3.455c.704 1.164 1.253 2.415 1.632 3.721zm10.409-4.547c-.953-1.004-1.763-2.135-2.406-3.36a15.37 15.37 0 0 1-1.929-3.647 15.55 15.55 0 0 1 2.395 3.36 15.67 15.67 0 0 1 1.94 3.647zm-3.211 12.741c-1.334.651-2.739 1.142-4.187 1.463-1.4.481-2.852.794-4.325.933 1.324-.663 2.728-1.155 4.176-1.463 1.4-.493 2.857-.807 4.336-.933zM87.503 428.24a10.76 10.76 0 0 1-4.007-2.067 10.59 10.59 0 0 1-3.18-3.18c.117-.116 1.537 1.294 3.519 2.725l3.668 2.522zm-22.917-8.087c-1.06.24-2.167.159-3.18-.233-1.049-.205-2.015-.714-2.777-1.463.992.255 1.969.566 2.926.933a25.1 25.1 0 0 1 3.032.763z" class="D"/><path d="M507.178 508.185c0 .148-109.243.276-243.98.276s-244.012-.128-244.012-.276 109.18-.276 244.012-.276l243.98.276z" class="B"/><defs ><path id="B" d="M70.437 416.051c-.265-6.244-5.671-17.49-7.897-28.546-1.134-5.65-1.813-10.674 1.834-15.148 3.085-3.784 7.42-6.36 11.66-8.755 6.773-3.848 13.928-7.632 21.698-8.056 5.067-.276 10.536 1.145 13.78 5.045 2.661 3.18 3.413 7.548 3.933 11.66.877 6.875 1.369 13.794 1.473 20.723a35.59 35.59 0 0 1-1.06 10.706c-.455 1.745-1.252 3.383-2.343 4.818s-2.457 2.641-4.017 3.546c-2.756 1.431-6.042 1.558-8.798 2.989s-4.791 5.3-2.745 7.59l-18.232 4.982-9.286-11.554z"/></defs></svg>