<svg width="100" height="38" viewBox="0 0 100 38" fill="none" xmlns="http://www.w3.org/2000/svg">
<path d="M5.32899 2.39014C5.32899 2.39014 5.88929 4.45548 7.50279 4.55125C7.50279 4.55125 5.34905 5.28951 5.31271 6.86833C5.31271 6.86833 4.8887 4.65403 3.18774 4.57458C3.18774 4.57474 5.16902 4.27682 5.32899 2.39014Z" fill="#D7E057"/>
<path d="M5.31249 7.11325C5.25517 7.1132 5.19965 7.09334 5.15548 7.05707C5.11132 7.02081 5.08126 6.9704 5.07049 6.91453C5.06654 6.8943 4.66045 4.88868 3.17618 4.81917C3.11512 4.81623 3.05733 4.79088 3.01403 4.74805C2.97073 4.70522 2.94501 4.64795 2.94186 4.58736C2.9387 4.52677 2.95834 4.46718 2.99696 4.42014C3.03558 4.37311 3.09043 4.34199 3.15086 4.33282C3.22337 4.32172 4.94192 4.03637 5.08331 2.36977C5.08781 2.3122 5.11272 2.25807 5.1536 2.21697C5.19449 2.17588 5.24872 2.15048 5.30668 2.14528C5.36463 2.14008 5.42257 2.15541 5.47022 2.18856C5.51788 2.22171 5.55216 2.27054 5.567 2.32638C5.57226 2.3453 6.1028 4.22318 7.51736 4.3072C7.57437 4.31044 7.62848 4.33323 7.67044 4.37166C7.7124 4.4101 7.73961 4.46181 7.74741 4.51794C7.75522 4.57408 7.74313 4.63117 7.71323 4.67944C7.68332 4.72772 7.63745 4.76419 7.58345 4.78263C7.56356 4.78948 5.59116 5.48597 5.5591 6.87423C5.55764 6.93816 5.53101 6.99897 5.48492 7.04365C5.43882 7.08833 5.37693 7.11331 5.31249 7.11325ZM4.03981 4.54687C4.67755 4.86812 5.06407 5.48418 5.28717 5.99501C5.62043 5.33897 6.26408 4.8877 6.75846 4.62013C6.07863 4.31944 5.64328 3.69816 5.38829 3.19695C5.0935 3.9083 4.52153 4.31764 4.03981 4.54687Z" fill="#3A312A"/>
<path d="M1.76171 5.16064C1.76171 5.16064 2.1581 6.62151 3.29925 6.68921C3.29925 6.68921 1.77585 7.21146 1.75021 8.32807C1.75021 8.32807 1.45033 6.76182 0.247192 6.70569C0.247192 6.70569 1.64844 6.49506 1.76171 5.16064Z" fill="#D7E057"/>
<path d="M1.74984 8.57305C1.69247 8.57298 1.63691 8.55307 1.59274 8.51674C1.54857 8.48041 1.51854 8.42993 1.50783 8.374C1.5052 8.36062 1.22768 6.99667 0.235483 6.95034C0.174264 6.94759 0.116267 6.92233 0.0727949 6.87947C0.0293225 6.8366 0.00348902 6.77921 0.000328444 6.71848C-0.00283213 6.65775 0.0169065 6.59802 0.0556983 6.55095C0.0944901 6.50387 0.149556 6.47281 0.210165 6.46382C0.258829 6.45615 1.42086 6.26119 1.51589 5.14017C1.52082 5.08288 1.54592 5.02913 1.58679 4.98837C1.62766 4.94761 1.68169 4.92243 1.7394 4.91725C1.79711 4.91208 1.85481 4.92723 1.90239 4.96006C1.94996 4.99288 1.98437 5.04128 1.99958 5.09677C2.00303 5.10966 2.36588 6.38893 3.31369 6.44522C3.37075 6.44843 3.42492 6.47123 3.46691 6.50971C3.50891 6.54818 3.53612 6.59995 3.54389 6.65614C3.55166 6.71234 3.5395 6.76947 3.50951 6.81775C3.47951 6.86603 3.43353 6.90246 3.37945 6.92081C3.36613 6.92538 2.01783 7.4026 1.99645 8.33403C1.99495 8.39794 1.96831 8.45873 1.92222 8.5034C1.87613 8.54807 1.81426 8.57306 1.74984 8.57305ZM1.00688 6.69223C1.35329 6.90955 1.58609 7.24597 1.738 7.55351C1.96423 7.18936 2.3159 6.92179 2.61989 6.74216C2.24389 6.53512 1.98133 6.1956 1.80755 5.88985C1.61486 6.26331 1.31202 6.52239 1.00688 6.69223Z" fill="#3A312A"/>
<path d="M1.76171 0.811279C1.76171 0.811279 2.1581 2.27214 3.29925 2.34001C3.29925 2.34001 1.77585 2.86226 1.75021 3.97887C1.75021 3.97887 1.45033 2.41261 0.247192 2.35649C0.247192 2.35649 1.64844 2.14586 1.76171 0.811279Z" fill="#D7E057"/>
<path d="M1.75011 4.22378C1.69274 4.22372 1.63719 4.20381 1.59301 4.16748C1.54884 4.13115 1.51881 4.08067 1.50811 4.02474C1.50547 4.01136 1.22795 2.64741 0.235755 2.60091C0.17468 2.598 0.116873 2.57268 0.073552 2.52986C0.0302307 2.48704 0.0044845 2.42977 0.00130949 2.36917C-0.00186551 2.30858 0.0177571 2.24897 0.0563696 2.20192C0.094982 2.15487 0.149831 2.12374 0.210272 2.11456C0.258772 2.10689 1.42097 1.91176 1.516 0.790906C1.52087 0.73355 1.54595 0.679732 1.58685 0.638913C1.62774 0.598093 1.68182 0.572883 1.73959 0.567714C1.79736 0.562339 1.85519 0.577449 1.9028 0.610363C1.95042 0.643277 1.98474 0.691866 1.99968 0.747507C2.00314 0.760396 2.36598 2.03967 3.31379 2.09596C3.37086 2.09917 3.42502 2.12197 3.46702 2.16044C3.50901 2.19892 3.53622 2.25069 3.54399 2.30688C3.55177 2.36308 3.53961 2.4202 3.50961 2.46848C3.47962 2.51676 3.43364 2.5532 3.37956 2.57155C3.36624 2.57611 2.01793 3.05333 1.99656 3.98477C1.99506 4.04865 1.96844 4.10942 1.92238 4.15408C1.87633 4.19874 1.81451 4.22376 1.75011 4.22378ZM1.00716 2.34281C1.35356 2.56029 1.58636 2.89654 1.73828 3.20425C1.9645 2.83993 2.31617 2.57252 2.62016 2.39289C2.24416 2.18569 1.9816 1.84634 1.80782 1.54059C1.61513 1.91388 1.3123 2.17297 1.00716 2.34281Z" fill="#3A312A"/>
<path d="M24.0287 14.3212C27.7654 14.3212 30.7945 11.3152 30.7945 7.60701C30.7945 3.89887 27.7654 0.892822 24.0287 0.892822C20.292 0.892822 17.2628 3.89887 17.2628 7.60701C17.2628 11.3152 20.292 14.3212 24.0287 14.3212Z" fill="#FAE6CA"/>
<path d="M24.0936 14.5092C20.2269 14.5092 17.0813 11.3875 17.0813 7.55047C17.0813 3.71314 20.2271 0.591553 24.0936 0.591553C27.9605 0.591553 31.1061 3.7133 31.1061 7.55047C31.1063 11.3875 27.9605 14.5092 24.0936 14.5092ZM24.0936 1.08085C20.499 1.08085 17.5745 3.98299 17.5745 7.55031C17.5745 11.1175 20.499 14.0196 24.0936 14.0196C27.6884 14.0196 30.6129 11.1175 30.6129 7.55031C30.613 3.98299 27.6884 1.08085 24.0936 1.08085Z" fill="#3A312A"/>
<path d="M1.55261 15.4871H16.8594V27.7244H1.55261V15.4871Z" fill="#FFBB64"/>
<path d="M16.8596 27.9694H1.55264C1.48724 27.9694 1.42451 27.9436 1.37826 27.8977C1.33201 27.8518 1.30603 27.7896 1.30603 27.7247V15.4872C1.30603 15.4223 1.33201 15.36 1.37826 15.3141C1.42451 15.2682 1.48724 15.2424 1.55264 15.2424H16.8596C16.925 15.2424 16.9878 15.2682 17.034 15.3141C17.0803 15.36 17.1063 15.4223 17.1063 15.4872V27.7247C17.1063 27.7896 17.0803 27.8518 17.034 27.8977C16.9878 27.9436 16.925 27.9694 16.8596 27.9694ZM1.79925 27.48H16.613V15.7319H1.79925V27.48Z" fill="#3A312A"/>
<path d="M18.368 33.5113V37.1881H0.246948V33.5113C0.246948 31.2703 2.0773 29.4539 4.3356 29.4539H7.03846V27.7026H7.08433C7.82844 28.2228 8.58784 28.529 9.30745 28.529C10.0576 28.529 10.8307 28.2257 11.5779 27.7118V29.4539H14.2793C16.5376 29.4539 18.368 31.2703 18.368 33.5113Z" fill="#FCE8CB"/>
<path d="M18.368 37.4327H0.246978C0.181572 37.4327 0.118846 37.4069 0.0725971 37.361C0.0263485 37.3151 0.000366211 37.2529 0.000366211 37.188V33.5112C0.000366211 31.139 1.94514 29.209 4.33563 29.209H6.79188V27.7025C6.79188 27.6376 6.81786 27.5753 6.86411 27.5294C6.91036 27.4835 6.97308 27.4578 7.03849 27.4578H7.08436C7.13516 27.4578 7.18481 27.4734 7.22641 27.5023C7.96871 28.0211 8.66875 28.2841 9.30748 28.2841C9.97448 28.2841 10.691 28.0237 11.4374 27.5105C11.4744 27.4851 11.5177 27.4703 11.5625 27.4675C11.6074 27.4648 11.6522 27.4743 11.692 27.495C11.7319 27.5157 11.7653 27.5468 11.7886 27.5849C11.8119 27.6231 11.8243 27.6668 11.8244 27.7115V29.209H14.2792C16.6696 29.209 18.6144 31.139 18.6144 33.5112V37.188C18.6146 37.3232 18.5043 37.4327 18.368 37.4327ZM0.493589 36.9432H18.1214V33.5112C18.1214 31.4088 16.3979 29.6985 14.2793 29.6985H11.5779C11.5125 29.6985 11.4498 29.6727 11.4036 29.6268C11.3573 29.5809 11.3313 29.5187 11.3313 29.4538V28.1593C10.6359 28.5672 9.95689 28.7736 9.30748 28.7736C8.66826 28.7736 7.98942 28.5563 7.2851 28.1268V29.4538C7.2851 29.5187 7.25912 29.5809 7.21287 29.6268C7.16662 29.6727 7.10389 29.6985 7.03849 29.6985H4.33563C2.21707 29.6985 0.493589 31.4088 0.493589 33.5112V36.9432Z" fill="#3A312A"/>
<path d="M18.368 33.5103V37.1887H0.246948V33.5103C0.246948 31.2693 2.07746 29.4529 4.3356 29.4529H5.14695L5.13018 29.4651L7.94007 33.1633L9.38998 32.0791L10.8401 33.1633L13.6499 29.4651L13.6332 29.4529H14.2795C16.5376 29.4529 18.368 31.2693 18.368 33.5103Z" fill="#033E5A"/>
<path d="M18.3681 37.4333H0.246978C0.181572 37.4333 0.118846 37.4075 0.0725971 37.3616C0.0263485 37.3157 0.000366211 37.2535 0.000366211 37.1886V33.5102C0.000366211 31.1379 1.94514 29.208 4.33563 29.208H5.14698C5.20254 29.2081 5.25645 29.2267 5.30001 29.2609C5.34356 29.2952 5.37422 29.343 5.38702 29.3966L7.98844 32.8202L9.24155 31.8834C9.28436 31.8514 9.33646 31.8342 9.39001 31.8342C9.44356 31.8342 9.49566 31.8514 9.53847 31.8834L10.7916 32.8202L13.393 29.3966C13.4057 29.3429 13.4364 29.2951 13.48 29.2609C13.5235 29.2266 13.5775 29.208 13.633 29.208H14.2793C16.6698 29.208 18.6146 31.1379 18.6146 33.5102V37.1886C18.6146 37.2535 18.5886 37.3157 18.5424 37.3616C18.4962 37.4075 18.4335 37.4333 18.3681 37.4333ZM0.493589 36.9439H18.1214V33.5102C18.1214 31.4078 16.3979 29.6975 14.2792 29.6975H13.7822L11.037 33.3105C10.9976 33.3622 10.9391 33.3962 10.8743 33.4053C10.8096 33.4143 10.7439 33.3975 10.6916 33.3586L9.39017 32.3854L8.08872 33.3586C8.03643 33.3975 7.97073 33.4143 7.906 33.4053C7.84128 33.3962 7.78278 33.3622 7.7433 33.3105L4.99819 29.6975H4.33596C2.2174 29.6975 0.493918 31.4078 0.493918 33.5102V36.9439H0.493589Z" fill="#3A312A"/>
<path fill-rule="evenodd" clip-rule="evenodd" d="M3.89556 19.3957C3.89556 20.2773 3.17529 20.9921 2.28683 20.9921C1.39821 20.9921 0.678101 20.2773 0.678101 19.3957C0.678101 18.5138 1.39837 17.7991 2.28683 17.7991C3.17529 17.7991 3.89556 18.5138 3.89556 19.3957Z" fill="#FCE8CB"/>
<path d="M2.28686 21.2368C1.26375 21.2368 0.431519 20.4109 0.431519 19.3956C0.431519 18.3803 1.26391 17.5544 2.28686 17.5544C3.30997 17.5544 4.14236 18.3803 4.14236 19.3956C4.1422 20.4107 3.30997 21.2368 2.28686 21.2368ZM2.28686 18.0439C1.53584 18.0439 0.924741 18.6503 0.924741 19.3956C0.924741 20.1409 1.53584 20.7473 2.28686 20.7473C3.03804 20.7473 3.64914 20.1409 3.64914 19.3956C3.64897 18.6502 3.03787 18.0439 2.28686 18.0439Z" fill="#3A312A"/>
<path fill-rule="evenodd" clip-rule="evenodd" d="M17.9376 19.3957C17.9376 20.2773 17.2173 20.9921 16.3287 20.9921C15.4402 20.9921 14.72 20.2773 14.72 19.3957C14.72 18.5138 15.4402 17.7991 16.3287 17.7991C16.7554 17.7991 17.1646 17.9673 17.4664 18.2667C17.7681 18.5661 17.9376 18.9722 17.9376 19.3957Z" fill="#FCE8CB"/>
<path d="M16.3289 21.2368C15.3058 21.2368 14.4734 20.4109 14.4734 19.3956C14.4734 18.3803 15.3056 17.5544 16.3289 17.5544C17.352 17.5544 18.1842 18.3803 18.1842 19.3956C18.1842 20.4107 17.3518 21.2368 16.3289 21.2368ZM16.3289 18.0439C15.5777 18.0439 14.9666 18.6503 14.9666 19.3956C14.9666 20.1409 15.5777 20.7473 16.3289 20.7473C17.0799 20.7473 17.691 20.1409 17.691 19.3956C17.691 18.6502 17.0799 18.0439 16.3289 18.0439Z" fill="#3A312A"/>
<path d="M16.4399 18.6207C16.4399 22.5295 12.6464 28.5293 9.3079 28.5293C6.12119 28.5293 2.1759 22.5295 2.1759 18.6207C2.1759 14.7119 5.36903 11.5432 9.3079 11.5432C13.2468 11.5432 16.4399 14.7119 16.4399 18.6207Z" fill="#FCE8CB"/>
<path d="M9.30793 28.7739C7.76678 28.7739 5.91111 27.4304 4.34398 25.18C2.85461 23.0411 1.92932 20.5276 1.92932 18.6208C1.92932 14.5833 5.23934 11.2986 9.30793 11.2986C13.3765 11.2986 16.6865 14.5833 16.6865 18.6208C16.6865 20.549 15.7835 23.062 14.3298 25.1786C12.7603 27.4635 10.93 28.7739 9.30793 28.7739ZM9.30793 11.788C5.51127 11.788 2.42254 14.8532 2.42254 18.6208C2.42254 20.4335 3.31429 22.8401 4.74973 24.9017C6.22463 27.0199 7.92872 28.2845 9.30793 28.2845C10.743 28.2845 12.4678 27.0204 13.9222 24.9028C15.3231 22.8629 16.1933 20.4558 16.1933 18.6207C16.1933 14.8532 13.1044 11.788 9.30793 11.788Z" fill="#3A312A"/>
<path d="M7.48575 18.5408C7.48573 18.724 7.41236 18.8997 7.28179 19.0293C7.15121 19.1588 6.97412 19.2316 6.78949 19.2316C6.60485 19.2316 6.42778 19.1588 6.29723 19.0292C6.16669 18.8996 6.09336 18.7239 6.09338 18.5406C6.09339 18.4499 6.11141 18.3601 6.14641 18.2763C6.18141 18.1924 6.2327 18.1163 6.29735 18.0521C6.362 17.988 6.43876 17.9371 6.52323 17.9024C6.60769 17.8677 6.69823 17.8498 6.78965 17.8499C6.88107 17.8499 6.9716 17.8677 7.05606 17.9025C7.14052 17.9372 7.21726 17.9881 7.2819 18.0523C7.34654 18.1164 7.39781 18.1926 7.43279 18.2764C7.46777 18.3602 7.48576 18.4501 7.48575 18.5408ZM12.5217 18.5408C12.5217 18.6315 12.5037 18.7214 12.4687 18.8052C12.4337 18.889 12.3824 18.9651 12.3178 19.0293C12.2531 19.0934 12.1763 19.1443 12.0919 19.179C12.0074 19.2137 11.9169 19.2316 11.8255 19.2316C11.734 19.2316 11.6435 19.2137 11.559 19.179C11.4746 19.1442 11.3978 19.0933 11.3332 19.0292C11.2686 18.965 11.2173 18.8889 11.1823 18.805C11.1473 18.7212 11.1293 18.6314 11.1294 18.5406C11.1294 18.3574 11.2027 18.1817 11.3333 18.0521C11.4639 17.9226 11.641 17.8498 11.8256 17.8499C12.0103 17.8499 12.1873 17.9227 12.3179 18.0523C12.4484 18.1818 12.5217 18.3576 12.5217 18.5408Z" fill="#3A312A"/>
<path d="M6.59772 20.5946C6.59772 21.0858 6.06076 21.4842 5.39853 21.4842C4.7363 21.4842 4.19934 21.086 4.19934 20.5946C4.19934 20.1033 4.7363 19.7051 5.39853 19.7051C6.06076 19.7051 6.59772 20.1033 6.59772 20.5946ZM14.4161 20.5946C14.4161 21.0858 13.8792 21.4842 13.2169 21.4842C12.5547 21.4842 12.0177 21.086 12.0177 20.5946C12.0177 20.1033 12.5547 19.7051 13.2169 19.7051C13.8793 19.7051 14.4161 20.1033 14.4161 20.5946Z" fill="#F5978A"/>
<path d="M5.13257 29.4636L6.58865 28.3747L9.39754 32.0733L7.94146 33.1623L5.13257 29.4636Z" fill="#87796F"/>
<path d="M7.93984 33.4076C7.90164 33.4076 7.86396 33.3988 7.82978 33.3818C7.7956 33.3649 7.76585 33.3403 7.74288 33.31L4.93398 29.6114C4.91448 29.5857 4.90026 29.5565 4.89214 29.5254C4.88403 29.4942 4.88217 29.4618 4.88667 29.43C4.89118 29.3982 4.90196 29.3675 4.91839 29.3398C4.93483 29.3121 4.95661 29.2879 4.98248 29.2686L6.43847 28.1796C6.49071 28.1405 6.55643 28.1237 6.62117 28.1328C6.68591 28.1418 6.74438 28.176 6.78372 28.2278L9.59263 31.9265C9.61213 31.9522 9.62634 31.9814 9.63446 32.0125C9.64258 32.0436 9.64443 32.076 9.63993 32.1079C9.63543 32.1397 9.62465 32.1703 9.60821 32.198C9.59177 32.2257 9.57 32.2499 9.54413 32.2693L8.08797 33.3583C8.04522 33.3905 7.99311 33.4076 7.93984 33.4076ZM5.47619 29.5123L7.98817 32.8201L9.05041 32.0257L6.53826 28.718L5.47619 29.5123Z" fill="#3A312A"/>
<path d="M10.8412 33.1621L9.38511 32.0731L12.194 28.3745L13.6501 29.4635L10.8412 33.1621Z" fill="#87796F"/>
<path d="M10.8401 33.4078C10.7869 33.4078 10.7348 33.3908 10.6917 33.3585L9.23568 32.2695C9.20981 32.2501 9.18804 32.2259 9.1716 32.1982C9.15516 32.1705 9.14438 32.1399 9.13988 32.108C9.13538 32.0762 9.13724 32.0438 9.14535 32.0127C9.15347 31.9816 9.16768 31.9523 9.18718 31.9267L11.9961 28.228C12.0354 28.1762 12.0939 28.142 12.1586 28.1329C12.2234 28.1239 12.2891 28.1407 12.3413 28.1797L13.7973 29.2688C13.8232 29.2881 13.845 29.3123 13.8614 29.34C13.8779 29.3677 13.8886 29.3984 13.8931 29.4302C13.8976 29.462 13.8958 29.4944 13.8877 29.5255C13.8795 29.5567 13.8653 29.5859 13.8458 29.6115L11.0369 33.3102C11.014 33.3405 10.9843 33.365 10.9501 33.382C10.916 33.3989 10.8783 33.4077 10.8401 33.4078ZM9.72956 32.0259L10.7916 32.8203L13.3038 29.5125L12.2417 28.7181L9.72956 32.0259ZM3.64139 37.4332C3.57598 37.4332 3.51325 37.4074 3.46701 37.3615C3.42076 37.3156 3.39478 37.2534 3.39478 37.1885V34.2824C3.39478 34.2175 3.42076 34.1553 3.46701 34.1094C3.51325 34.0635 3.57598 34.0377 3.64139 34.0377C3.70679 34.0377 3.76952 34.0635 3.81577 34.1094C3.86202 34.1553 3.888 34.2175 3.888 34.2824V37.1885C3.888 37.2534 3.86202 37.3156 3.81577 37.3615C3.76952 37.4074 3.70679 37.4332 3.64139 37.4332ZM15.1387 37.4332C15.0733 37.4332 15.0106 37.4074 14.9644 37.3615C14.9181 37.3156 14.8921 37.2534 14.8921 37.1885V34.2824C14.8921 34.2175 14.9181 34.1553 14.9644 34.1094C15.0106 34.0635 15.0733 34.0377 15.1387 34.0377C15.2041 34.0377 15.2669 34.0635 15.3131 34.1094C15.3594 34.1553 15.3853 34.2175 15.3853 34.2824V37.1885C15.3853 37.2534 15.3594 37.3156 15.3131 37.3615C15.2669 37.4074 15.2041 37.4332 15.1387 37.4332ZM9.30753 24.6064C8.28409 24.6064 7.54607 24.1499 7.11417 23.2496C7.10025 23.2206 7.09223 23.1891 7.09057 23.157C7.08891 23.1249 7.09363 23.0928 7.10447 23.0625C7.11531 23.0323 7.13205 23.0044 7.15374 22.9805C7.17544 22.9567 7.20165 22.9373 7.2309 22.9235C7.26014 22.9097 7.29184 22.9017 7.32418 22.9C7.35653 22.8984 7.38888 22.9031 7.4194 22.9138C7.44992 22.9246 7.478 22.9412 7.50205 22.9627C7.52609 22.9843 7.54563 23.0103 7.55955 23.0393C7.90743 23.7643 8.47924 24.1169 9.30753 24.1169C10.3676 24.1169 10.9092 23.4247 11.0473 23.0586C11.0702 22.9978 11.1166 22.9485 11.1762 22.9216C11.2357 22.8947 11.3036 22.8924 11.3648 22.9152C11.4261 22.938 11.4757 22.984 11.5028 23.0431C11.5299 23.1022 11.5322 23.1696 11.5093 23.2304C11.259 23.8931 10.4633 24.6064 9.30753 24.6064Z" fill="#3A312A"/>
<path d="M17.4246 16.0268C17.4246 16.7519 17.3296 17.4549 17.1499 18.124C15.3231 17.25 13.5855 16.1771 11.9756 14.9642C11.5035 14.609 11.0385 14.239 10.5944 13.8471C10.0494 13.3725 9.53401 12.8612 9.06923 12.307C8.0578 11.0985 7.31534 9.71006 6.68713 8.26438C7.50081 8.0035 8.35077 7.8712 9.20586 7.87232C11.5567 7.87232 13.6776 8.85237 15.1762 10.4235C16.5707 11.8839 17.4246 13.8559 17.4246 16.0268Z" fill="#FFBB64"/>
<path d="M17.1496 18.3686C17.113 18.3686 17.0763 18.3605 17.0426 18.3445C15.2456 17.4847 13.4908 16.4131 11.8263 15.1591C11.2939 14.7586 10.8372 14.389 10.4303 14.0298C9.84814 13.5232 9.32598 12.9957 8.87945 12.4635C7.97619 11.3841 7.20759 10.0807 6.46036 8.36106C6.44681 8.32977 6.43999 8.29602 6.44032 8.26196C6.44065 8.22791 6.44813 8.1943 6.46229 8.16327C6.47644 8.13225 6.49696 8.10449 6.52253 8.08177C6.5481 8.05906 6.57816 8.04188 6.61079 8.03133C7.44904 7.76248 8.32469 7.62611 9.20563 7.6272C11.5549 7.6272 13.7387 8.56043 15.355 10.2548C16.8484 11.8191 17.671 13.8687 17.671 16.0264C17.671 16.7606 17.5756 17.4874 17.3879 18.1867C17.3739 18.2388 17.343 18.2849 17.2999 18.3178C17.2568 18.3507 17.204 18.3686 17.1496 18.3686ZM7.02394 8.41816C7.71709 9.97006 8.43094 11.1611 9.2589 12.1506C9.68883 12.663 10.1929 13.1719 10.7571 13.663C11.1555 14.0149 11.6025 14.3763 12.1247 14.7692C13.6783 15.9398 15.3116 16.9486 16.9834 17.7708C17.1132 17.1984 17.1785 16.6135 17.1781 16.0267C17.1781 13.9949 16.4036 12.0646 14.9972 10.5917C13.475 8.99588 11.4182 8.11699 9.20596 8.11699C8.46804 8.11607 7.7336 8.21744 7.02394 8.41816Z" fill="#3A312A"/>
<path d="M15.176 10.4233C13.7621 11.7026 6.75928 15.1617 1.29585 18.2417C1.09111 17.5209 0.987652 16.7755 0.988407 16.0266C0.988407 12.3951 3.38103 9.31777 6.68694 8.26413C7.50062 8.00326 8.35057 7.87096 9.20566 7.87208C11.5567 7.87208 13.6775 8.85213 15.176 10.4233Z" fill="#FFBB64"/>
<path d="M1.29588 18.4868C1.24219 18.4868 1.18997 18.4694 1.14715 18.4373C1.10433 18.4051 1.07325 18.36 1.05864 18.3088C0.8479 17.5662 0.741293 16.7985 0.741823 16.0271C0.741823 12.3638 3.10074 9.15088 6.6115 8.03166C7.44955 7.76289 8.32497 7.62657 9.20569 7.62769C11.5549 7.62769 13.7387 8.56092 15.355 10.2553C15.3775 10.2789 15.395 10.3068 15.4065 10.3372C15.4181 10.3676 15.4234 10.4 15.4222 10.4325C15.421 10.465 15.4133 10.4969 15.3996 10.5264C15.3858 10.5559 15.3663 10.5824 15.3422 10.6044C14.4071 11.4507 11.1986 13.1669 7.48385 15.1542C5.45226 16.241 3.35146 17.3648 1.4177 18.4549C1.38052 18.4758 1.33857 18.4867 1.29588 18.4868ZM9.20569 8.11698C8.37639 8.11594 7.55209 8.24422 6.76292 8.49713C3.45636 9.55125 1.23505 12.5771 1.23505 16.0267C1.23505 16.6516 1.30837 17.2709 1.45354 17.872C3.31365 16.8286 5.31318 15.7592 7.24973 14.7232C10.5607 12.952 13.6996 11.2728 14.8138 10.4057C13.3116 8.92769 11.3303 8.11698 9.20569 8.11698Z" fill="#3A312A"/>
<path d="M18.1214 33.5099V36.9442H15.6553V33.5099C15.6553 32.004 14.7708 30.7004 13.4917 30.0804L13.7827 29.697H14.2792C16.3984 29.6969 18.1214 31.4085 18.1214 33.5099Z" fill="#033E5A"/>
<path d="M6.24104 21.286C4.69397 21.286 3.43542 20.0371 3.43542 18.5018C3.43542 16.9667 4.69413 15.7178 6.24104 15.7178C7.78795 15.7178 9.04666 16.9667 9.04666 18.5018C9.04666 20.0369 7.78812 21.286 6.24104 21.286ZM6.24104 16.2071C4.9659 16.2071 3.92865 17.2366 3.92865 18.5016C3.92865 19.767 4.9659 20.7964 6.24104 20.7964C7.51602 20.7964 8.55343 19.767 8.55343 18.5016C8.55343 17.2364 7.51619 16.2071 6.24104 16.2071ZM12.6316 21.286C11.0845 21.286 9.82595 20.0371 9.82595 18.5018C9.82595 16.9667 11.0845 15.7178 12.6316 15.7178C14.1786 15.7178 15.4372 16.9667 15.4372 18.5018C15.4372 20.0369 14.1786 21.286 12.6316 21.286ZM12.6316 16.2071C11.3566 16.2071 10.3192 17.2366 10.3192 18.5016C10.3192 19.767 11.3566 20.7964 12.6316 20.7964C13.9065 20.7964 14.944 19.767 14.944 18.5016C14.944 17.2364 13.9065 16.2071 12.6316 16.2071Z" fill="#3A312A"/>
<path d="M10.0726 18.7413H8.80013C8.73473 18.7413 8.672 18.7155 8.62575 18.6696C8.5795 18.6238 8.55352 18.5615 8.55352 18.4966C8.55352 18.4317 8.5795 18.3694 8.62575 18.3235C8.672 18.2777 8.73473 18.2519 8.80013 18.2519H10.0726C10.1381 18.2519 10.2008 18.2777 10.247 18.3235C10.2933 18.3694 10.3193 18.4317 10.3193 18.4966C10.3193 18.5615 10.2933 18.6238 10.247 18.6696C10.2008 18.7155 10.1381 18.7413 10.0726 18.7413ZM3.75052 18.1763C3.74217 18.1764 3.73383 18.1759 3.72553 18.175L2.24849 18.0272C2.21627 18.024 2.185 18.0145 2.15647 17.9993C2.12794 17.9841 2.10271 17.9634 2.08223 17.9385C2.06174 17.9136 2.04639 17.885 2.03706 17.8542C2.02773 17.8234 2.02461 17.7911 2.02786 17.7592C2.03098 17.7271 2.04046 17.696 2.05575 17.6677C2.07105 17.6393 2.09185 17.6142 2.11696 17.5938C2.14207 17.5735 2.171 17.5583 2.20206 17.5491C2.23313 17.5399 2.26573 17.5368 2.29798 17.5402L3.77502 17.688C3.83813 17.6941 3.89645 17.724 3.93789 17.7717C3.97933 17.8193 4.00069 17.8809 3.99754 17.9438C3.99438 18.0066 3.96696 18.0658 3.92096 18.1091C3.87496 18.1525 3.81392 18.1765 3.75052 18.1763ZM15.1241 18.1763C15.0613 18.1761 15.0011 18.1521 14.9555 18.1093C14.91 18.0665 14.8826 18.0081 14.8789 17.9459C14.8752 17.8838 14.8956 17.8226 14.9358 17.7748C14.976 17.727 15.033 17.6962 15.0953 17.6887L16.4087 17.5335C16.4409 17.5296 16.4735 17.5321 16.5047 17.5408C16.5359 17.5495 16.5651 17.5642 16.5905 17.5841C16.616 17.604 16.6372 17.6286 16.653 17.6567C16.6688 17.6848 16.6789 17.7156 16.6827 17.7476C16.6865 17.7795 16.6839 17.8118 16.6752 17.8428C16.6664 17.8737 16.6516 17.9026 16.6316 17.9279C16.6115 17.9531 16.5867 17.9742 16.5584 17.99C16.5302 18.0057 16.4991 18.0157 16.4669 18.0195L15.1535 18.1747C15.1436 18.1758 15.1338 18.1763 15.1241 18.1763Z" fill="#3A312A"/>
<path d="M28.5122 9.89151L24.0793 10.6141L19.6464 9.89151V4.40063L24.0793 5.12323L28.5122 4.40063V9.89151Z" fill="#FEE3E5"/>
<path d="M24.0796 10.859C24.0662 10.859 24.0528 10.8579 24.0396 10.8557L19.6067 10.1331C19.549 10.1237 19.4965 10.0943 19.4587 10.0501C19.4208 10.0058 19.4 9.94969 19.4 9.89167V4.40079C19.4001 4.36532 19.4079 4.33028 19.4229 4.2981C19.438 4.26592 19.4599 4.23737 19.4871 4.21441C19.5144 4.19145 19.5463 4.17463 19.5808 4.16512C19.6152 4.15561 19.6513 4.15363 19.6866 4.15933L24.0796 4.87524L28.4725 4.15933C28.5078 4.15349 28.544 4.15536 28.5785 4.16482C28.613 4.17427 28.645 4.19108 28.6723 4.21407C28.6996 4.23706 28.7215 4.26567 28.7364 4.29792C28.7514 4.33017 28.7592 4.36527 28.7591 4.40079V9.89167C28.7591 9.94969 28.7383 10.0058 28.7004 10.0501C28.6626 10.0943 28.6101 10.1237 28.5524 10.1331L24.1195 10.8557C24.1064 10.8579 24.0929 10.859 24.0796 10.859ZM19.8932 9.68381L24.0796 10.3663L28.2659 9.68381V4.68908L24.1195 5.36486C24.0932 5.3691 24.0659 5.3691 24.0396 5.36486L19.8932 4.68908V9.68381Z" fill="#3A312A"/>
<path d="M24.0794 10.859C24.014 10.859 23.9512 10.8332 23.905 10.7873C23.8587 10.7414 23.8328 10.6792 23.8328 10.6143V5.12339C23.8328 5.05848 23.8587 4.99624 23.905 4.95034C23.9512 4.90445 24.014 4.87866 24.0794 4.87866C24.1448 4.87866 24.2075 4.90445 24.2538 4.95034C24.3 4.99624 24.326 5.05848 24.326 5.12339V10.6143C24.326 10.6792 24.3 10.7414 24.2538 10.7873C24.2075 10.8332 24.1448 10.859 24.0794 10.859Z" fill="#3A312A"/>
<rect x="32.6422" y="2.10278" width="1.11312" height="33.7943" fill="#3A312A"/>
<path d="M37.519 16.9714V16.1629L38.3538 16.0054V10.2982L37.519 10.1407V9.32691H43.3417V11.2958H42.3126L42.2233 10.3455H39.6769V12.5086H42.3598V13.5325H39.6769V15.9634H42.3651L42.4543 14.9921H43.4729V16.9714H37.519ZM44.2237 16.9714V16.1629L44.9115 16.0579L46.5654 14.1152L44.9798 12.2094L44.3445 12.1044V11.2905H46.9119V12.0834L46.4184 12.1464L47.3844 13.3854L48.34 12.1464L47.7992 12.0834V11.2905H50.2931V12.1044L49.6841 12.2094L48.193 14.0732L49.8784 16.0579L50.5294 16.1629V16.9714H47.8255V16.1839L48.3978 16.1209L47.3687 14.8555L46.3659 16.1261L46.9014 16.1839V16.9714H44.2237ZM50.9757 19.1556V18.3418L51.7422 18.1843V12.2619L50.9074 12.1044V11.2905H52.9288L53.0128 11.9626C53.1878 11.7141 53.4013 11.5233 53.6534 11.3903C53.9054 11.2538 54.2029 11.1855 54.5459 11.1855C55.008 11.1855 55.4035 11.3115 55.7325 11.5636C56.0615 11.8156 56.3118 12.1674 56.4833 12.6189C56.6583 13.0704 56.7458 13.599 56.7458 14.2045V14.3148C56.7458 14.8678 56.6583 15.3526 56.4833 15.7691C56.3083 16.1821 56.0563 16.5042 55.7273 16.7352C55.4017 16.9662 55.008 17.0817 54.5459 17.0817C54.2204 17.0817 53.9351 17.0257 53.6901 16.9137C53.4451 16.7982 53.2351 16.6302 53.0601 16.4096V18.1843L53.8686 18.3418V19.1556H50.9757ZM54.1469 16.0631C54.5809 16.0631 54.9012 15.9039 55.1077 15.5853C55.3177 15.2633 55.4227 14.8398 55.4227 14.3148V14.2045C55.4227 13.8125 55.3755 13.4694 55.281 13.1754C55.19 12.8779 55.0482 12.6469 54.8557 12.4824C54.6667 12.3144 54.4269 12.2304 54.1364 12.2304C53.8914 12.2304 53.6779 12.2864 53.4959 12.3984C53.3173 12.5069 53.1721 12.6609 53.0601 12.8604V15.4646C53.1721 15.6571 53.3173 15.8059 53.4959 15.9109C53.6744 16.0124 53.8914 16.0631 54.1469 16.0631ZM57.3234 16.9714V16.1629L58.1162 16.0054V9.75219L57.2761 9.59468V8.78088H59.434V16.0054L60.2268 16.1629V16.9714H57.3234ZM60.7886 16.9714V16.1629L61.5762 16.0054V12.2619L60.7413 12.1044V11.2905H62.8992V16.0054L63.6815 16.1629V16.9714H60.7886ZM61.5236 10.0042V8.78088H62.8992V10.0042H61.5236ZM66.9105 17.0817C66.3785 17.0817 65.9165 16.9609 65.5244 16.7194C65.1359 16.4744 64.8349 16.1384 64.6214 15.7113C64.4113 15.2808 64.3063 14.7855 64.3063 14.2255V14.0417C64.3063 13.4922 64.4113 13.0022 64.6214 12.5716C64.8314 12.1411 65.1306 11.8033 65.5192 11.5583C65.9112 11.3098 66.3732 11.1855 66.9053 11.1855C67.3918 11.1855 67.8153 11.2643 68.1759 11.4218C68.5364 11.5758 68.8321 11.7683 69.0632 11.9993L69.0684 13.5167H68.0603L67.8661 12.5139C67.7681 12.4124 67.6438 12.3319 67.4933 12.2724C67.3428 12.2094 67.1783 12.1779 66.9998 12.1779C66.7093 12.1779 66.4607 12.2566 66.2542 12.4141C66.0512 12.5716 65.8954 12.7904 65.7869 13.0704C65.6819 13.3469 65.6294 13.6707 65.6294 14.0417V14.2255C65.6294 14.6245 65.6837 14.9605 65.7922 15.2336C65.9007 15.5066 66.0512 15.7131 66.2437 15.8531C66.4397 15.9931 66.6638 16.0631 66.9158 16.0631C67.2203 16.0631 67.4671 15.9809 67.6561 15.8164C67.8486 15.6518 67.9746 15.4243 68.0341 15.1338H69.1787L69.1944 15.1653C69.1524 15.5363 69.0422 15.8671 68.8637 16.1576C68.6886 16.4446 68.4401 16.6704 68.1181 16.8349C67.7996 16.9994 67.3971 17.0817 66.9105 17.0817ZM71.8511 17.0817C71.2736 17.0817 70.8238 16.9329 70.5018 16.6354C70.1797 16.3379 70.0187 15.9284 70.0187 15.4068C70.0187 15.0498 70.1167 14.7365 70.3128 14.467C70.5088 14.1975 70.7958 13.9875 71.1738 13.837C71.5518 13.683 72.0104 13.606 72.5494 13.606H73.4157V13.1282C73.4157 12.8272 73.3247 12.5874 73.1427 12.4089C72.9642 12.2304 72.7034 12.1411 72.3604 12.1411C72.1644 12.1411 71.9911 12.1656 71.8406 12.2146C71.6901 12.2601 71.5553 12.3266 71.4363 12.4141L71.3156 13.1807H70.3443L70.3338 11.7788C70.6138 11.5968 70.9253 11.4533 71.2683 11.3483C71.6113 11.2398 71.9929 11.1855 72.4129 11.1855C73.1339 11.1855 73.701 11.3553 74.114 11.6948C74.5305 12.0308 74.7388 12.5139 74.7388 13.1439V15.6483C74.7388 15.7254 74.7388 15.8006 74.7388 15.8741C74.7423 15.9476 74.7476 16.0194 74.7546 16.0894L75.3321 16.1629V16.9714H73.6047C73.5697 16.8489 73.5365 16.7299 73.505 16.6144C73.477 16.4989 73.456 16.3834 73.442 16.2679C73.253 16.5059 73.0237 16.7019 72.7542 16.8559C72.4882 17.0064 72.1871 17.0817 71.8511 17.0817ZM72.1504 16.0579C72.4164 16.0579 72.6649 15.9966 72.8959 15.8741C73.1269 15.7481 73.3002 15.5906 73.4157 15.4016V14.4513H72.5337C72.1381 14.4513 71.8389 14.544 71.6358 14.7295C71.4363 14.9115 71.3366 15.1251 71.3366 15.3701C71.3366 15.5906 71.4066 15.7604 71.5466 15.8794C71.6866 15.9984 71.8879 16.0579 72.1504 16.0579ZM78.1883 17.0817C77.7298 17.0817 77.3377 16.9662 77.0122 16.7352C76.6867 16.5042 76.4364 16.1821 76.2614 15.7691C76.0899 15.3526 76.0041 14.8678 76.0041 14.3148V14.2045C76.0041 13.599 76.0899 13.0704 76.2614 12.6189C76.4364 12.1674 76.6867 11.8156 77.0122 11.5636C77.3412 11.3115 77.7315 11.1855 78.183 11.1855C78.5086 11.1855 78.7921 11.2485 79.0336 11.3746C79.2786 11.4971 79.4886 11.6738 79.6636 11.9048V9.75219L78.8288 9.59468V8.78088H79.6636H80.9867V16.0054L81.7743 16.1629V16.9714H79.8422L79.7371 16.2836C79.5586 16.5462 79.3399 16.7457 79.0809 16.8822C78.8253 17.0152 78.5278 17.0817 78.1883 17.0817ZM78.5611 16.0369C78.8131 16.0369 79.0301 15.9826 79.2121 15.8741C79.3941 15.7621 79.5446 15.6011 79.6636 15.3911V12.8867C79.5481 12.6836 79.3976 12.5244 79.2121 12.4089C79.0301 12.2899 78.8166 12.2304 78.5716 12.2304C78.2845 12.2304 78.0483 12.3144 77.8628 12.4824C77.6808 12.6469 77.546 12.8779 77.4585 13.1754C77.371 13.4694 77.3272 13.8125 77.3272 14.2045V14.3148C77.3272 14.8398 77.4235 15.2581 77.616 15.5696C77.812 15.8811 78.127 16.0369 78.5611 16.0369ZM84.9823 17.0817C84.4362 17.0817 83.9672 16.9592 83.5752 16.7142C83.1831 16.4692 82.8821 16.1296 82.6721 15.6956C82.4621 15.2581 82.3571 14.7558 82.3571 14.1887V14.0785C82.3571 13.5149 82.4621 13.0162 82.6721 12.5821C82.8821 12.1481 83.1831 11.8068 83.5752 11.5583C83.9672 11.3098 84.4327 11.1855 84.9718 11.1855C85.5178 11.1855 85.9868 11.3098 86.3789 11.5583C86.7709 11.8033 87.0719 12.1429 87.2819 12.5769C87.4919 13.0109 87.5969 13.5114 87.5969 14.0785V14.1887C87.5969 14.7558 87.4919 15.2581 87.2819 15.6956C87.0719 16.1296 86.7709 16.4692 86.3789 16.7142C85.9903 16.9592 85.5248 17.0817 84.9823 17.0817ZM84.9823 16.0631C85.2763 16.0631 85.5178 15.9844 85.7068 15.8269C85.8993 15.6658 86.0428 15.4453 86.1373 15.1653C86.2318 14.8818 86.2791 14.5563 86.2791 14.1887V14.0785C86.2791 13.7145 86.2318 13.3924 86.1373 13.1124C86.0428 12.8324 85.8993 12.6119 85.7068 12.4509C85.5143 12.2899 85.2693 12.2094 84.9718 12.2094C84.6812 12.2094 84.4397 12.2899 84.2472 12.4509C84.0547 12.6119 83.9112 12.8324 83.8167 13.1124C83.7257 13.3924 83.6802 13.7145 83.6802 14.0785V14.1887C83.6802 14.5563 83.7257 14.8818 83.8167 15.1653C83.9112 15.4453 84.0547 15.6658 84.2472 15.8269C84.4432 15.9844 84.6882 16.0631 84.9823 16.0631ZM88.3897 16.9714V16.1629L89.1773 16.0054V12.2619L88.3477 12.1044V11.2905H90.3954L90.4636 12.0046L90.4741 12.1201C90.6246 11.8191 90.8084 11.5881 91.0254 11.4271C91.2459 11.266 91.5032 11.1855 91.7972 11.1855C91.8952 11.1855 91.9985 11.1943 92.107 11.2118C92.219 11.2293 92.31 11.2485 92.38 11.2695L92.2277 12.4929L91.4874 12.4509C91.2459 12.4369 91.0464 12.4841 90.8889 12.5926C90.7349 12.7011 90.6054 12.8517 90.5004 13.0442V16.0054L91.2879 16.1629V16.9714H88.3897ZM94.7322 17.0817C94.1546 17.0817 93.7048 16.9329 93.3828 16.6354C93.0608 16.3379 92.8998 15.9284 92.8998 15.4068C92.8998 15.0498 92.9978 14.7365 93.1938 14.467C93.3898 14.1975 93.6768 13.9875 94.0549 13.837C94.4329 13.683 94.8914 13.606 95.4305 13.606H96.2968V13.1282C96.2968 12.8272 96.2058 12.5874 96.0238 12.4089C95.8452 12.2304 95.5845 12.1411 95.2415 12.1411C95.0454 12.1411 94.8722 12.1656 94.7217 12.2146C94.5712 12.2601 94.4364 12.3266 94.3174 12.4141L94.1966 13.1807H93.2253L93.2148 11.7788C93.4948 11.5968 93.8064 11.4533 94.1494 11.3483C94.4924 11.2398 94.8739 11.1855 95.294 11.1855C96.015 11.1855 96.582 11.3553 96.9951 11.6948C97.4116 12.0308 97.6199 12.5139 97.6199 13.1439V15.6483C97.6199 15.7254 97.6199 15.8006 97.6199 15.8741C97.6234 15.9476 97.6286 16.0194 97.6356 16.0894L98.2132 16.1629V16.9714H96.4858C96.4508 16.8489 96.4175 16.7299 96.386 16.6144C96.358 16.4989 96.337 16.3834 96.323 16.2679C96.134 16.5059 95.9047 16.7019 95.6352 16.8559C95.3692 17.0064 95.0682 17.0817 94.7322 17.0817ZM95.0314 16.0579C95.2975 16.0579 95.546 15.9966 95.777 15.8741C96.008 15.7481 96.1813 15.5906 96.2968 15.4016V14.4513H95.4147C95.0192 14.4513 94.7199 14.544 94.5169 14.7295C94.3174 14.9115 94.2176 15.1251 94.2176 15.3701C94.2176 15.5906 94.2876 15.7604 94.4276 15.8794C94.5677 15.9984 94.7689 16.0579 95.0314 16.0579Z" fill="#3A312A"/>
<path d="M38.8076 30.0283V29.4613L39.5412 29.3353V24.1464H38.0561L37.9256 25.0555H37.2595V23.4759H42.7049V25.0555H42.0479L41.9129 24.1464H40.4278V29.3353L41.1613 29.4613V30.0283H38.8076ZM43.0964 30.0283V29.4613L43.83 29.3353V25.8565L43.0964 25.7305V25.159H44.7166V29.3353L45.4501 29.4613V30.0283H43.0964ZM43.785 23.9574V23.0078H44.7166V23.9574H43.785ZM47.6373 30.1228C47.1302 30.1228 46.7447 29.9998 46.4807 29.7538C46.2167 29.5048 46.0846 29.1553 46.0846 28.7052C46.0846 28.3962 46.1687 28.1277 46.3367 27.8997C46.5077 27.6687 46.7537 27.4901 47.0747 27.3641C47.3957 27.2351 47.7798 27.1706 48.2268 27.1706H49.0954V26.6936C49.0954 26.3996 49.0053 26.1716 48.8253 26.0095C48.6483 25.8475 48.3978 25.7665 48.0738 25.7665C47.8698 25.7665 47.6928 25.792 47.5427 25.843C47.3927 25.891 47.2562 25.9585 47.1332 26.0455L47.0387 26.7251H46.3547V25.609C46.5737 25.432 46.8287 25.2985 47.1197 25.2085C47.4107 25.1155 47.7333 25.069 48.0873 25.069C48.6783 25.069 49.1419 25.21 49.4779 25.492C49.8139 25.774 49.9819 26.1776 49.9819 26.7026V29.0473C49.9819 29.1103 49.9819 29.1718 49.9819 29.2318C49.9849 29.2918 49.9894 29.3518 49.9954 29.4118L50.4679 29.4613V30.0283H49.1944C49.1674 29.8963 49.1464 29.7778 49.1314 29.6728C49.1164 29.5678 49.1059 29.4628 49.0999 29.3578C48.9288 29.5768 48.7143 29.7598 48.4563 29.9068C48.2013 30.0508 47.9283 30.1228 47.6373 30.1228ZM47.7678 29.3803C48.0618 29.3803 48.3303 29.3098 48.5733 29.1688C48.8163 29.0278 48.9903 28.8582 49.0954 28.6602V27.7782H48.1953C47.7873 27.7782 47.4812 27.8757 47.2772 28.0707C47.0732 28.2657 46.9712 28.4832 46.9712 28.7232C46.9712 28.9362 47.0372 29.0998 47.1692 29.2138C47.3012 29.3248 47.5007 29.3803 47.7678 29.3803ZM53.4832 30.0283V29.4613L54.2167 29.3353V24.1734L53.4832 24.0474V23.4759H54.2167H56.0483C56.6274 23.4759 57.1314 23.6139 57.5604 23.8899C57.9925 24.1659 58.3285 24.5454 58.5685 25.0285C58.8085 25.5115 58.9285 26.0635 58.9285 26.6846V26.8241C58.9285 27.4301 58.813 27.9762 58.582 28.4622C58.351 28.9452 58.0225 29.3278 57.5964 29.6098C57.1734 29.8888 56.6724 30.0283 56.0933 30.0283H53.4832ZM55.1033 29.3353H56.0483C56.4624 29.3353 56.8179 29.2228 57.1149 28.9977C57.4119 28.7697 57.6399 28.4667 57.7989 28.0887C57.961 27.7077 58.042 27.2861 58.042 26.8241V26.6756C58.042 26.1986 57.961 25.7725 57.7989 25.3975C57.6399 25.0195 57.4119 24.721 57.1149 24.5019C56.8179 24.2829 56.4624 24.1734 56.0483 24.1734H55.1033V29.3353ZM61.7727 30.1228C61.3227 30.1228 60.9312 30.0208 60.5981 29.8168C60.2651 29.6098 60.0071 29.3233 59.8241 28.9572C59.6441 28.5912 59.5541 28.1682 59.5541 27.6882V27.4901C59.5541 27.0281 59.6486 26.6156 59.8376 26.2526C60.0296 25.8865 60.2831 25.5985 60.5981 25.3885C60.9162 25.1755 61.2627 25.069 61.6377 25.069C62.0757 25.069 62.4418 25.159 62.7358 25.339C63.0328 25.519 63.2563 25.7725 63.4063 26.0996C63.5563 26.4236 63.6313 26.8061 63.6313 27.2471V27.8007H60.4721L60.4586 27.8232C60.4646 28.1352 60.5186 28.4127 60.6206 28.6557C60.7256 28.8957 60.8757 29.0848 61.0707 29.2228C61.2657 29.3608 61.4997 29.4298 61.7727 29.4298C62.0727 29.4298 62.3353 29.3878 62.5603 29.3038C62.7883 29.2168 62.9848 29.0983 63.1498 28.9482L63.4963 29.5243C63.3223 29.6923 63.0913 29.8348 62.8033 29.9518C62.5183 30.0658 62.1747 30.1228 61.7727 30.1228ZM60.4991 27.1076H62.7448V26.9906C62.7448 26.7566 62.7028 26.5481 62.6188 26.3651C62.5378 26.1791 62.4148 26.0335 62.2498 25.9285C62.0877 25.8205 61.8837 25.7665 61.6377 25.7665C61.4397 25.7665 61.2597 25.825 61.0977 25.942C60.9357 26.056 60.8022 26.2121 60.6971 26.4101C60.5921 26.6081 60.5231 26.8331 60.4901 27.0851L60.4991 27.1076ZM64.3244 30.0283V29.4613L65.0579 29.3353V25.8565L64.3244 25.7305V25.159H65.85L65.913 25.8835C66.075 25.6255 66.2775 25.426 66.5205 25.285C66.7666 25.141 67.0456 25.069 67.3576 25.069C67.8826 25.069 68.2892 25.2235 68.5772 25.5325C68.8652 25.8385 69.0092 26.3126 69.0092 26.9546V29.3353L69.7428 29.4613V30.0283H67.3891V29.4613L68.1227 29.3353V26.9726C68.1227 26.5436 68.0371 26.2391 67.8661 26.059C67.6981 25.879 67.4401 25.789 67.0921 25.789C66.8371 25.789 66.6106 25.8505 66.4125 25.9735C66.2175 26.0966 66.0615 26.2646 65.9445 26.4776V29.3353L66.6781 29.4613V30.0283H64.3244ZM70.3413 30.0283V29.4613L71.0749 29.3353V25.8565L70.3413 25.7305V25.159H71.9614V29.3353L72.695 29.4613V30.0283H70.3413ZM71.0299 23.9574V23.0078H71.9614V23.9574H71.0299ZM75.2781 30.1228C74.9511 30.1228 74.6451 30.0898 74.3601 30.0238C74.0751 29.9578 73.772 29.8558 73.451 29.7178L73.442 28.5612H74.1126L74.2791 29.2588C74.4471 29.3278 74.6091 29.3788 74.7651 29.4118C74.9241 29.4418 75.0951 29.4568 75.2781 29.4568C75.6382 29.4568 75.8962 29.3878 76.0522 29.2498C76.2082 29.1118 76.2862 28.9407 76.2862 28.7367C76.2862 28.5447 76.2067 28.3827 76.0477 28.2507C75.8917 28.1157 75.6067 28.0017 75.1926 27.9087C74.6046 27.7737 74.1711 27.5937 73.892 27.3686C73.616 27.1406 73.478 26.8376 73.478 26.4596C73.478 26.1956 73.5545 25.96 73.7075 25.753C73.8605 25.543 74.0736 25.3765 74.3466 25.2535C74.6196 25.1305 74.9376 25.069 75.3006 25.069C75.6697 25.069 75.9847 25.111 76.2457 25.195C76.5097 25.279 76.7392 25.3915 76.9343 25.5325L76.9793 26.6441H76.3132L76.1692 25.996C76.0642 25.918 75.9397 25.858 75.7957 25.816C75.6517 25.774 75.4867 25.753 75.3006 25.753C75.0246 25.753 74.7996 25.8175 74.6256 25.9465C74.4546 26.0756 74.3691 26.2376 74.3691 26.4326C74.3691 26.5466 74.3931 26.6456 74.4411 26.7296C74.4921 26.8136 74.5881 26.8901 74.7291 26.9591C74.8701 27.0251 75.0771 27.0911 75.3501 27.1571C76.0282 27.3161 76.5007 27.5186 76.7677 27.7647C77.0378 28.0107 77.1728 28.3137 77.1728 28.6737C77.1728 29.0848 77.0198 29.4298 76.7137 29.7088C76.4107 29.9848 75.9322 30.1228 75.2781 30.1228ZM80.125 30.1228C79.6749 30.1228 79.2834 30.0208 78.9504 29.8168C78.6174 29.6098 78.3594 29.3233 78.1763 28.9572C77.9963 28.5912 77.9063 28.1682 77.9063 27.6882V27.4901C77.9063 27.0281 78.0008 26.6156 78.1898 26.2526C78.3819 25.8865 78.6354 25.5985 78.9504 25.3885C79.2684 25.1755 79.6149 25.069 79.99 25.069C80.428 25.069 80.794 25.159 81.088 25.339C81.3851 25.519 81.6086 25.7725 81.7586 26.0996C81.9086 26.4236 81.9836 26.8061 81.9836 27.2471V27.8007H78.8244L78.8109 27.8232C78.8169 28.1352 78.8709 28.4127 78.9729 28.6557C79.0779 28.8957 79.2279 29.0848 79.4229 29.2228C79.6179 29.3608 79.852 29.4298 80.125 29.4298C80.425 29.4298 80.6875 29.3878 80.9125 29.3038C81.1405 29.2168 81.3371 29.0983 81.5021 28.9482L81.8486 29.5243C81.6746 29.6923 81.4436 29.8348 81.1555 29.9518C80.8705 30.0658 80.527 30.1228 80.125 30.1228ZM78.8514 27.1076H81.097V26.9906C81.097 26.7566 81.055 26.5481 80.971 26.3651C80.89 26.1791 80.767 26.0335 80.602 25.9285C80.44 25.8205 80.236 25.7665 79.99 25.7665C79.792 25.7665 79.6119 25.825 79.4499 25.942C79.2879 26.056 79.1544 26.2121 79.0494 26.4101C78.9444 26.6081 78.8754 26.8331 78.8424 27.0851L78.8514 27.1076Z" fill="#87796F"/>
</svg>
