<svg width="560" height="522" viewBox="0 0 560 522" fill="none" xmlns="http://www.w3.org/2000/svg">
<path d="M426.446 35.1922C444.765 18.4285 466.15 2.91915 490.915 0.298067C515.681 -2.32301 543.722 12.5432 547.693 36.9771C552.546 66.7255 521.755 94.472 528.541 123.859C533.458 145.109 556.736 159.082 559.704 180.678C561.524 193.96 554.762 207.42 544.563 216.199C534.364 224.979 521.181 229.61 507.949 232.175C456.185 242.201 389.864 218.145 362.93 171.07C334.469 121.318 392.63 66.1145 426.446 35.1922Z" fill="#FF6551"/>
<path d="M371.835 37.8691C412.138 44.8399 452.804 59.505 480.854 89.1007C510.779 120.69 522.628 165.217 527.255 208.376C531.776 250.587 530.352 293.899 518.034 334.533C505.716 375.168 481.913 413.069 447.401 438.106C397.167 474.6 331.306 480.132 269.125 482.97C233.926 484.578 198.363 485.712 163.722 479.296C129.081 472.88 94.9739 458.239 71.0738 432.543C47.1737 406.846 34.9122 368.969 45.4267 335.522C58.2866 294.349 101.048 267.817 114.094 226.667C130.529 174.857 97.2304 94.7529 158.238 63.099C220.185 30.9707 304.405 26.1868 371.835 37.8691Z" fill="#273D5E"/>
<path d="M1.3631 339.583C-2.59195 363.438 2.40645 388.129 11.8775 410.392C38.1393 472.02 100.846 516.666 167.976 521.587C184.152 522.777 201.04 521.683 215.583 514.479C230.125 507.276 241.861 492.94 242.322 476.803C242.888 457.202 227.286 440.51 209.969 431.119C192.653 421.729 172.991 417.29 155.505 408.213C133.74 396.901 116.504 377.926 106.103 355.952C95.7989 334.14 101.727 311.33 94.2055 290.417C74.4627 235.479 6.73355 307.213 1.3631 339.583Z" fill="#8EC2F2"/>
<path d="M114.482 134.721C137.792 147.786 170.451 140.663 186.126 119.107C212.816 82.4118 189.863 6.54527 136.854 27.9642C93.4533 45.5077 61.2792 104.9 114.482 134.721Z" fill="white"/>
<path d="M197.611 458.939C177.159 456.576 157.462 449.844 139.872 439.205C122.282 428.567 107.214 414.273 95.7019 397.303C84.3626 380.214 76.8754 360.889 73.7538 340.654C70.6323 320.419 71.9501 299.752 77.617 280.07L80.5206 280.914C74.9678 300.176 73.6728 320.403 76.7247 340.209C79.7765 360.014 87.1029 378.929 98.2011 395.655C109.471 412.261 124.22 426.248 141.437 436.657C158.655 447.065 177.933 453.649 197.951 455.956L197.611 458.939Z" fill="white"/>
<path d="M484.913 316.243L481.913 315.921C486.539 273.678 491.327 230.005 485.002 187.223C477.957 139.585 457.107 100.229 426.372 76.398C392.993 50.549 351.461 44.9451 322.506 44.7923C284.403 44.5591 246.3 53.0817 212.63 60.5751L211.967 57.6405C245.791 50.1149 284.225 41.5602 322.522 41.7934C351.954 41.9461 394.182 47.6707 428.232 74.0342C459.63 98.3475 480.853 138.355 488.011 186.797C494.368 229.94 489.564 273.815 484.913 316.243Z" fill="white"/>
<path d="M507.156 448.125L504.641 446.46C547.119 382.943 562.3 300.693 545.259 226.354L548.203 225.687C565.43 300.781 550.12 383.965 507.156 448.125Z" fill="white"/>
<path d="M2.94804 293.337L0.173828 292.147C9.21624 271.355 28.6113 257.952 47.3675 244.991C49.5782 243.464 51.7727 241.939 53.9511 240.416C71.2595 228.268 94.4398 209.124 95.9118 183.332C96.8338 167.171 89.2715 152.843 81.2644 137.672C76.1689 128.024 70.9036 118.03 68.0162 107.513C58.1892 71.6383 79.6387 31.0357 114.854 18.7263L115.857 21.5644C82.696 33.1663 61.6671 72.9408 70.936 106.685C73.7344 116.888 78.9269 126.721 83.9415 136.241C91.7869 151.107 99.8992 166.48 98.9286 183.468C97.3838 210.596 73.5161 230.358 55.6981 242.869C53.5413 244.402 51.3387 245.932 49.0902 247.46C30.6819 260.179 11.6427 273.333 2.94804 293.337Z" fill="white"/>
</svg>
